<svg width="656" height="542" viewBox="0 0 656 542" fill="none" xmlns="http://www.w3.org/2000/svg">
<g clip-path="url(#clip0)">
<rect x="183" y="31" width="396" height="346" rx="8" fill="#F2F2F2"/>
<path d="M183 39C183 34.5817 186.582 31 191 31H571C575.418 31 579 34.5817 579 39V58H183V39Z" fill="#C5CFD6"/>
<path fill-rule="evenodd" clip-rule="evenodd" d="M196 49C198.209 49 200 47.2091 200 45C200 42.7909 198.209 41 196 41C193.791 41 192 42.7909 192 45C192 47.2091 193.791 49 196 49Z" fill="#F2F2F2"/>
<path fill-rule="evenodd" clip-rule="evenodd" d="M208 49C210.209 49 212 47.2091 212 45C212 42.7909 210.209 41 208 41C205.791 41 204 42.7909 204 45C204 47.2091 205.791 49 208 49Z" fill="#F2F2F2"/>
<path fill-rule="evenodd" clip-rule="evenodd" d="M220 49C222.209 49 224 47.2091 224 45C224 42.7909 222.209 41 220 41C217.791 41 216 42.7909 216 45C216 47.2091 217.791 49 220 49Z" fill="#F2F2F2"/>
<rect x="493" y="163" width="70" height="194" rx="8" fill="white"/>
<rect x="511" y="181" width="34" height="26" rx="4" fill="#DDE3E9"/>
<rect x="511" y="215" width="34" height="25" rx="4" fill="#AFB9C5"/>
<rect x="511" y="248" width="34" height="25" rx="4" fill="#DDE3E9"/>
<rect x="511" y="314" width="34" height="25" rx="4" fill="#DDE3E9"/>
<rect x="511" y="281" width="34" height="25" rx="4" fill="#C5CFD6"/>
<rect x="493" y="74" width="70" height="81" rx="8" fill="white"/>
<path fill-rule="evenodd" clip-rule="evenodd" d="M528 121C536.837 121 544 113.837 544 105C544 96.1634 536.837 89 528 89C519.163 89 512 96.1634 512 105C512 113.837 519.163 121 528 121Z" fill="#DDE3E9"/>
<rect x="503" y="125" width="50" height="6" rx="3" fill="#DDE3E9"/>
<rect x="511" y="135" width="34" height="6" rx="3" fill="#DDE3E9"/>
<rect x="199" y="74" width="286" height="47" rx="4" fill="white"/>
<g clip-path="url(#clip1)">
<rect x="208" y="88.1" width="228" height="7.05" rx="3" fill="#DDE3E9"/>
<rect x="208" y="99.85" width="153.041" height="7.05" rx="3" fill="#DDE3E9"/>
</g>
<path fill-rule="evenodd" clip-rule="evenodd" d="M454.435 104.5C458.301 104.5 461.435 101.366 461.435 97.5C461.435 93.634 458.301 90.5 454.435 90.5C450.569 90.5 447.435 93.634 447.435 97.5C447.435 101.366 450.569 104.5 454.435 104.5Z" fill="#DDE3E9"/>
<path fill-rule="evenodd" clip-rule="evenodd" d="M454.435 100.5C456.092 100.5 457.435 99.1569 457.435 97.5C457.435 95.8431 456.092 94.5 454.435 94.5C452.778 94.5 451.435 95.8431 451.435 97.5C451.435 99.1569 452.778 100.5 454.435 100.5Z" fill="#F2F2F2"/>
<rect x="199" y="129" width="286" height="39" rx="4" fill="white"/>
<g clip-path="url(#clip2)">
<rect x="208" y="140.7" width="228" height="5.85" rx="2.925" fill="#DDE3E9"/>
<rect x="208" y="150.45" width="153.041" height="5.85" rx="2.925" fill="#DDE3E9"/>
</g>
<path fill-rule="evenodd" clip-rule="evenodd" d="M454.435 155.5C458.301 155.5 461.435 152.366 461.435 148.5C461.435 144.634 458.301 141.5 454.435 141.5C450.569 141.5 447.435 144.634 447.435 148.5C447.435 152.366 450.569 155.5 454.435 155.5Z" fill="#DDE3E9"/>
<path fill-rule="evenodd" clip-rule="evenodd" d="M454.435 151.5C456.092 151.5 457.435 150.157 457.435 148.5C457.435 146.843 456.092 145.5 454.435 145.5C452.778 145.5 451.435 146.843 451.435 148.5C451.435 150.157 452.778 151.5 454.435 151.5Z" fill="#F2F2F2"/>
<rect x="199" y="176" width="286" height="39" rx="4" fill="white"/>
<g clip-path="url(#clip3)">
<rect x="208" y="187.7" width="228" height="5.85" rx="2.925" fill="#DDE3E9"/>
<rect x="208" y="197.45" width="153.041" height="5.85" rx="2.925" fill="#DDE3E9"/>
</g>
<path fill-rule="evenodd" clip-rule="evenodd" d="M454.435 202.5C458.301 202.5 461.435 199.366 461.435 195.5C461.435 191.634 458.301 188.5 454.435 188.5C450.569 188.5 447.435 191.634 447.435 195.5C447.435 199.366 450.569 202.5 454.435 202.5Z" fill="#DDE3E9"/>
<path fill-rule="evenodd" clip-rule="evenodd" d="M454.435 198.5C456.092 198.5 457.435 197.157 457.435 195.5C457.435 193.843 456.092 192.5 454.435 192.5C452.778 192.5 451.435 193.843 451.435 195.5C451.435 197.157 452.778 198.5 454.435 198.5Z" fill="#AFB9C5"/>
<rect x="199" y="317" width="286" height="39" rx="4" fill="white"/>
<g clip-path="url(#clip4)">
<rect x="208" y="328.7" width="228" height="5.85" rx="2.925" fill="#DDE3E9"/>
<rect x="208" y="338.45" width="153.041" height="5.85" rx="2.925" fill="#DDE3E9"/>
</g>
<path fill-rule="evenodd" clip-rule="evenodd" d="M454.435 343.5C458.301 343.5 461.435 340.366 461.435 336.5C461.435 332.634 458.301 329.5 454.435 329.5C450.569 329.5 447.435 332.634 447.435 336.5C447.435 340.366 450.569 343.5 454.435 343.5Z" fill="#DDE3E9"/>
<path fill-rule="evenodd" clip-rule="evenodd" d="M454.435 339.5C456.092 339.5 457.435 338.157 457.435 336.5C457.435 334.843 456.092 333.5 454.435 333.5C452.778 333.5 451.435 334.843 451.435 336.5C451.435 338.157 452.778 339.5 454.435 339.5Z" fill="#F2F2F2"/>
<rect x="199" y="270" width="286" height="39" rx="4" fill="white"/>
<g clip-path="url(#clip5)">
<rect x="208" y="281.7" width="228" height="5.85" rx="2.925" fill="#DDE3E9"/>
<rect x="208" y="291.45" width="153.041" height="5.85" rx="2.925" fill="#DDE3E9"/>
</g>
<path fill-rule="evenodd" clip-rule="evenodd" d="M454.435 296.5C458.301 296.5 461.435 293.366 461.435 289.5C461.435 285.634 458.301 282.5 454.435 282.5C450.569 282.5 447.435 285.634 447.435 289.5C447.435 293.366 450.569 296.5 454.435 296.5Z" fill="#DDE3E9"/>
<path fill-rule="evenodd" clip-rule="evenodd" d="M454.435 292.5C456.092 292.5 457.435 291.157 457.435 289.5C457.435 287.843 456.092 286.5 454.435 286.5C452.778 286.5 451.435 287.843 451.435 289.5C451.435 291.157 452.778 292.5 454.435 292.5Z" fill="#F2F2F2"/>
<rect x="199" y="223" width="286" height="39" rx="4" fill="white"/>
<g clip-path="url(#clip6)">
<rect x="208" y="234.7" width="228" height="5.85" rx="2.925" fill="#DDE3E9"/>
<rect x="208" y="244.45" width="153.041" height="5.85" rx="2.925" fill="#DDE3E9"/>
</g>
<path fill-rule="evenodd" clip-rule="evenodd" d="M454.435 249.5C458.301 249.5 461.435 246.366 461.435 242.5C461.435 238.634 458.301 235.5 454.435 235.5C450.569 235.5 447.435 238.634 447.435 242.5C447.435 246.366 450.569 249.5 454.435 249.5Z" fill="#DDE3E9"/>
<path fill-rule="evenodd" clip-rule="evenodd" d="M454.435 245.5C456.092 245.5 457.435 244.157 457.435 242.5C457.435 240.843 456.092 239.5 454.435 239.5C452.778 239.5 451.435 240.843 451.435 242.5C451.435 244.157 452.778 245.5 454.435 245.5Z" fill="#F2F2F2"/>
<g clip-path="url(#clip7)">
<rect x="298" y="163.192" width="100" height="66" rx="4" transform="rotate(-14 298 163.192)" fill="#BDDDE7"/>
<path d="M321.937 200.342C320.248 200.731 318.773 200.573 317.512 199.869C316.257 199.19 315.415 197.918 314.987 196.055C314.793 195.21 314.68 194.438 314.65 193.739C314.639 193.009 314.613 192.269 314.572 191.52C314.555 190.766 314.435 189.904 314.212 188.935C314.007 188.04 313.554 187.268 312.856 186.618C312.151 185.943 311.004 185.618 309.414 185.644L308.831 183.11C310.272 182.438 311.165 181.657 311.51 180.767C311.855 179.877 311.921 178.972 311.71 178.053C311.493 177.109 311.227 176.294 310.912 175.607C310.622 174.916 310.325 174.251 310.022 173.615C309.738 172.948 309.499 172.192 309.304 171.347C308.87 169.459 309.069 167.935 309.901 166.776C310.733 165.617 311.994 164.843 313.683 164.454L315.658 164L316.275 166.683L314.859 167.009C313.816 167.249 313.078 167.68 312.646 168.303C312.232 168.895 312.157 169.762 312.42 170.905C312.586 171.626 312.808 172.307 313.086 172.949C313.359 173.567 313.643 174.234 313.939 174.95C314.254 175.637 314.526 176.477 314.754 177.47C315.057 178.787 314.982 179.995 314.528 181.093C314.099 182.186 313.201 183.059 311.835 183.714L311.852 183.788C313.373 183.805 314.565 184.211 315.428 185.006C316.316 185.796 316.911 186.849 317.214 188.166C317.437 189.135 317.559 190.009 317.582 190.789C317.623 191.538 317.659 192.262 317.689 192.962C317.713 193.636 317.811 194.346 317.983 195.091C318.24 196.209 318.686 196.957 319.322 197.334C319.983 197.705 320.835 197.77 321.879 197.53L323.295 197.205L323.912 199.888L321.937 200.342Z" fill="#9CCAD7"/>
<path d="M339.957 178.306C341.632 177.857 343.112 177.962 344.397 178.621C345.675 179.255 346.562 180.495 347.056 182.342C347.281 183.179 347.42 183.947 347.475 184.645C347.512 185.374 347.565 186.112 347.633 186.859C347.677 187.613 347.827 188.47 348.085 189.43C348.322 190.317 348.802 191.072 349.523 191.697C350.252 192.347 351.41 192.63 352.998 192.548L353.671 195.059C352.254 195.782 351.39 196.594 351.077 197.496C350.765 198.398 350.731 199.305 350.975 200.216C351.225 201.151 351.52 201.957 351.859 202.631C352.174 203.312 352.494 203.965 352.82 204.591C353.128 205.247 353.394 205.994 353.618 206.831C354.12 208.703 353.975 210.233 353.185 211.421C352.395 212.609 351.163 213.428 349.488 213.876L347.531 214.401L346.818 211.741L348.222 211.365C349.256 211.088 349.978 210.631 350.388 209.993C350.78 209.387 350.824 208.517 350.52 207.384C350.329 206.67 350.083 205.997 349.781 205.365C349.487 204.758 349.179 204.102 348.858 203.396C348.519 202.721 348.217 201.892 347.953 200.907C347.603 199.601 347.636 198.392 348.05 197.278C348.439 196.171 349.305 195.266 350.648 194.563L350.628 194.489C349.107 194.527 347.902 194.164 347.011 193.4C346.095 192.642 345.462 191.611 345.113 190.306C344.855 189.345 344.702 188.476 344.651 187.698C344.583 186.951 344.521 186.228 344.466 185.53C344.418 184.857 344.295 184.151 344.097 183.412C343.8 182.304 343.327 181.573 342.678 181.219C342.004 180.872 341.15 180.837 340.116 181.114L338.712 181.49L338 178.831L339.957 178.306Z" fill="#9CCAD7"/>
<path d="M356.985 180.25L344.26 173.014L352.186 160.672L356.716 159.562L348.748 171.914L361.514 179.139L356.985 180.25Z" fill="#9CCAD7"/>
<path d="M368.333 187.913L370.018 148.828L373.532 147.967L371.847 187.051L368.333 187.913Z" fill="#9CCAD7"/>
<path d="M384.488 173.508L392.466 161.198L379.689 153.931L384.219 152.82L396.953 160.098L389.018 172.398L384.488 173.508Z" fill="#9CCAD7"/>
<path d="M335.112 207.283C334.408 207.467 333.758 207.396 333.162 207.071C332.587 206.711 332.211 206.193 332.034 205.517C331.858 204.842 331.936 204.22 332.268 203.652C332.621 203.049 333.15 202.655 333.853 202.471C334.529 202.294 335.154 202.386 335.729 202.747C336.325 203.072 336.712 203.572 336.888 204.248C337.065 204.923 336.977 205.562 336.624 206.166C336.291 206.734 335.787 207.106 335.112 207.283ZM330.707 190.441C330.003 190.625 329.353 190.555 328.757 190.23C328.182 189.869 327.806 189.351 327.629 188.676C327.453 188 327.531 187.379 327.863 186.811C328.216 186.207 328.745 185.813 329.448 185.629C330.124 185.453 330.749 185.545 331.324 185.905C331.92 186.23 332.307 186.731 332.483 187.406C332.66 188.081 332.572 188.721 332.218 189.324C331.886 189.892 331.382 190.265 330.707 190.441Z" fill="#9CCAD7"/>
<path d="M383.995 185.018C383.338 185.172 382.738 185.092 382.192 184.777C381.667 184.429 381.331 183.941 381.182 183.311C381.034 182.681 381.12 182.106 381.442 181.587C381.783 181.036 382.282 180.683 382.938 180.528C383.568 180.38 384.145 180.48 384.671 180.827C385.216 181.142 385.562 181.615 385.711 182.245C385.859 182.875 385.763 183.465 385.421 184.017C385.1 184.536 384.625 184.869 383.995 185.018ZM384.812 206.146L385.048 196.905L388.473 196.099L387.096 205.608L384.812 206.146Z" fill="#9CCAD7"/>
</g>
<path fill-rule="evenodd" clip-rule="evenodd" d="M541.746 252.655L525.963 383.138L524.253 479.449L507.186 482.24L488.561 261.351L541.746 252.655Z" fill="#58432F"/>
<path fill-rule="evenodd" clip-rule="evenodd" d="M557.992 249.998C566.051 315.125 572.817 350.26 574.343 356.047C575.869 361.835 585.513 400.688 618.623 466.046L604.5 468C564.764 406.604 544.601 369.825 539.864 361.685C535.127 353.544 519.558 319.849 495.131 260.276L557.992 249.998Z" fill="#614934"/>
<path fill-rule="evenodd" clip-rule="evenodd" d="M542.522 252.528C540.127 296.931 535.051 368.015 527.294 465.78L502.333 469.861C484.716 373.697 482.178 308.925 488.35 261.385L542.522 252.528Z" fill="#012232"/>
<path fill-rule="evenodd" clip-rule="evenodd" d="M558.118 249.978C566.229 315.096 583.056 377.806 615.611 452.374L588.978 456.728C549.351 396.328 518.209 336.282 491.31 260.901L558.118 249.978Z" fill="#063B54"/>
<path fill-rule="evenodd" clip-rule="evenodd" d="M615.821 461.792C616.803 461.154 618.137 461.419 618.708 462.441C619.751 464.305 621.201 467.118 621.475 468.793C621.911 471.462 621.859 476.729 621.859 476.729C618.762 477.236 566.196 485.83 566.196 485.83C566.196 485.83 562.854 479.012 567.435 477.676C572.016 476.34 575.033 475.373 575.033 475.373L599.018 459.609C599.489 459.3 600.123 459.44 600.419 459.92L602.741 463.682C602.741 463.682 607.399 464.993 610.104 464.551C611.752 464.282 614.176 462.862 615.821 461.792Z" fill="#E4E4E4"/>
<path fill-rule="evenodd" clip-rule="evenodd" d="M523.053 476.96C524.034 476.322 525.368 476.587 525.94 477.609C526.982 479.473 528.432 482.286 528.706 483.961C529.143 486.631 529.091 491.897 529.091 491.897C525.994 492.404 473.428 500.999 473.428 500.999C473.428 500.999 470.085 494.18 474.666 492.844C479.248 491.508 482.264 490.541 482.264 490.541L506.25 474.778C506.721 474.468 507.354 474.609 507.65 475.088L509.973 478.85C509.973 478.85 514.63 480.162 517.336 479.719C518.983 479.45 521.408 478.03 523.053 476.96Z" fill="#E4E4E4"/>
<path fill-rule="evenodd" clip-rule="evenodd" d="M506.957 137.478C500.219 140.909 493.739 142.337 490.814 141.356C483.482 138.896 484.748 111.519 491.299 101.159C497.849 90.7982 527.899 88.2264 527.871 109.679C527.861 117.125 524.278 123.514 519.296 128.581L524.791 167.582L500.852 165.871L506.957 137.478Z" fill="#614A34"/>
<path fill-rule="evenodd" clip-rule="evenodd" d="M494.731 97.7038C494.185 97.8449 494.883 95.5887 496.218 94.8408C500.313 92.5473 512.226 89.5713 520.069 91.7929C525.323 93.2812 531.775 96.5353 535.781 100.382C539.393 103.85 542.485 109.729 543.491 114.772C544.547 120.068 544.57 127.333 542.279 131.723C539.551 136.951 530.838 142.174 530.563 142.931C530.25 143.794 530.984 147.307 531.443 150.987C531.901 154.666 530.914 163.881 530.415 165.359C529.618 167.722 526.183 168.667 524.709 168.736C516.56 169.122 509.986 178.733 507.365 181.126C507.365 181.126 489.922 196.302 483.633 193.714C482.529 193.26 485.191 179.845 486.736 174.125C488.281 168.404 500.106 158.844 501.06 155.483C501.622 153.503 501.942 150.009 501.997 149.853C503.558 142.72 503.42 142.121 505.155 139.293C506.89 136.465 508.085 136.377 507.779 135.495C506.287 131.187 501.441 117.984 500.434 113.708C499.233 108.612 499.852 110.302 498.601 105.219C498.047 102.968 497.567 96.9713 494.731 97.7038Z" fill="#D98888"/>
<mask id="mask0" mask-type="alpha" maskUnits="userSpaceOnUse" x="483" y="89" width="64" height="109">
<path fill-rule="evenodd" clip-rule="evenodd" d="M494.731 97.7038C494.185 97.8449 494.883 95.5887 496.218 94.8408C500.313 92.5473 512.226 89.5713 520.069 91.7929C525.323 93.2812 531.775 96.5353 535.781 100.382C539.393 103.85 542.485 109.729 543.491 114.772C544.547 120.068 544.57 127.333 542.279 131.723C539.551 136.951 530.838 142.174 530.563 142.931C530.25 143.794 530.984 147.307 531.443 150.987C531.901 154.666 530.914 163.881 530.415 165.359C529.618 167.722 526.183 168.667 524.709 168.736C516.56 169.122 509.986 178.733 507.365 181.126C507.365 181.126 489.922 196.302 483.633 193.714C482.529 193.26 485.191 179.845 486.736 174.125C488.281 168.404 500.106 158.844 501.06 155.483C501.622 153.503 501.942 150.009 501.997 149.853C503.558 142.72 503.42 142.121 505.155 139.293C506.89 136.465 508.085 136.377 507.779 135.495C506.287 131.187 501.441 117.984 500.434 113.708C499.233 108.612 499.852 110.302 498.601 105.219C498.047 102.968 497.567 96.9713 494.731 97.7038Z" fill="white"/>
</mask>
<g mask="url(#mask0)">
<path fill-rule="evenodd" clip-rule="evenodd" d="M515.888 115.958C516.806 108.399 516.642 105.408 515.289 99.7316L516.368 99.8087C517.916 102.134 518.861 108.975 516.746 116.019L515.888 115.958ZM537.057 117.112L537.057 117.111L537.057 117.111C537.279 116.664 537.505 116.207 537.739 115.737L538.401 116.116C535.671 123.877 532.602 129.799 523.197 134.276L522.529 133.733C531.507 128.334 533.661 123.979 537.057 117.112ZM524.917 106.728C524.777 107.408 524.643 108.071 524.512 108.718L524.512 108.718C522.496 118.653 521.217 124.953 513.149 135.969L513.952 136.279C522.657 126.15 524.54 117.51 525.679 106.845L524.917 106.728ZM530.414 139.792L531.055 140.696C527.484 141.181 524.908 143.597 521.954 146.367C518.829 149.298 515.281 152.624 509.687 154.478L508.722 153.795C514.873 151.136 517.851 148.268 520.451 145.765C523.143 143.173 525.43 140.971 530.414 139.792Z" fill="black" fill-opacity="0.2"/>
</g>
<path fill-rule="evenodd" clip-rule="evenodd" d="M414.103 146.77L452.259 157.271L442.956 173.612L413.093 156.952C399.32 156.45 392.79 155.243 393.504 153.332C394.105 151.72 395.617 151.413 397.01 151.13C398.096 150.91 399.109 150.704 399.562 149.908C400.597 148.09 396.716 143.508 392.847 139.318C388.978 135.128 391.99 134.859 393.821 135.16C400.146 137.56 406.906 141.43 414.103 146.77ZM425.798 248.156L457.148 224.003L464.599 241.267L433.322 255.091C424.633 265.788 419.74 270.276 418.642 268.557C417.717 267.106 418.382 265.714 418.995 264.431C419.472 263.431 419.917 262.499 419.554 261.658C418.725 259.737 412.73 260.079 407.055 260.647C401.38 261.216 402.979 258.648 404.321 257.367C410.044 253.76 417.203 250.69 425.798 248.156Z" fill="#614A34"/>
<path fill-rule="evenodd" clip-rule="evenodd" d="M505.226 159.796C488.607 192.578 464.067 217.979 428.257 244.623L442.4 259.848C482.7 243.804 503.943 234.195 513.773 203.359C516.24 195.62 517.523 171.1 518.812 158.185L505.226 159.796Z" fill="#8CD7C3"/>
<path fill-rule="evenodd" clip-rule="evenodd" d="M556.262 266.561L479.283 268.337C479.283 268.337 503.599 187.963 503.48 158.221C503.476 157.21 505.301 155.387 506.132 155.601C515.247 157.95 525.469 153.241 525.469 153.241C544.396 182.171 551.54 218.162 556.262 266.561Z" fill="#EBEBEB"/>
<path fill-rule="evenodd" clip-rule="evenodd" d="M507.193 198.465C496.36 250.315 497.887 292.52 524.431 291.908L565.476 290.961C570.985 247.001 552.451 186.652 535.861 156.379C535.227 155.223 533.885 153.047 530.843 153.117L518.916 153.392C518.912 153.408 518.907 153.424 518.902 153.44C515.313 153.552 511.364 153.775 507.087 154.015C485.069 155.255 454.368 156.984 419.539 146.682L415.933 167.144C447.601 186.494 479.557 201.312 507.193 198.465Z" fill="#A6E6D4"/>
</g>
<path fill-rule="evenodd" clip-rule="evenodd" d="M129.704 341.982C129.704 341.982 165.593 352.379 191.7 352.619C217.807 352.86 240.341 337.568 240.341 337.568C240.341 337.568 205.224 326.913 182.439 326.703C159.654 326.493 129.704 341.982 129.704 341.982Z" fill="#219977"/>
<path fill-rule="evenodd" clip-rule="evenodd" d="M212.377 362.482C212.149 362.132 211.957 361.752 211.806 361.341C208.678 352.832 158.162 260.879 153.2 244.107L211.023 244.64C214.796 257.392 231.57 337.353 233.887 353.297C241.431 378.483 256.688 459.966 258.68 465.619C260.775 471.567 248.622 477.63 245.466 470.313C240.444 458.671 228.519 426.474 223.259 406.834C218.327 388.422 214.326 371.861 212.377 362.482Z" fill="#AE8A6D"/>
<path fill-rule="evenodd" clip-rule="evenodd" d="M164.966 373.214C141.43 378.933 55.4439 388.869 49.5344 390.497C43.4553 392.173 38.2545 379.626 45.7737 376.988C57.7381 372.791 90.6878 363.141 110.647 359.263C126.701 356.144 141.348 353.613 151.179 352.143C150.602 324.56 147.41 258.348 150.034 244.078L201.197 244.55C198.681 258.234 177.559 358.054 173.713 368.03C172.488 371.593 168.919 373.139 164.966 373.214V373.214Z" fill="#C79E79"/>
<path fill-rule="evenodd" clip-rule="evenodd" d="M47.9073 376.215C48.1962 375.081 47.5157 373.903 46.3643 373.69C44.264 373.303 41.134 372.834 39.4602 373.114C36.7921 373.559 31.8218 375.302 31.8218 375.302C32.3382 378.397 41.1031 430.934 41.1031 430.934C41.1031 430.934 48.6341 431.907 48.4262 427.139C48.2184 422.372 48.1635 419.205 48.1635 419.205L55.3771 391.424C55.5187 390.879 55.1821 390.324 54.633 390.198L50.3238 389.208C50.3238 389.208 47.5842 385.22 47.133 382.516C46.8584 380.87 47.4233 378.117 47.9073 376.215Z" fill="#E4E4E4"/>
<path fill-rule="evenodd" clip-rule="evenodd" d="M244.586 468.243C243.518 467.762 242.241 468.228 241.831 469.325C241.085 471.326 240.08 474.327 240.064 476.024C240.039 478.728 240.893 483.926 240.893 483.926C244.03 483.955 297.292 484.446 297.292 484.446C297.292 484.446 299.557 477.199 294.826 476.575C290.095 475.952 286.966 475.456 286.966 475.456L260.86 463.528C260.348 463.294 259.743 463.529 259.524 464.048L257.801 468.12C257.801 468.12 253.397 470.125 250.656 470.1C248.987 470.085 246.374 469.05 244.586 468.243Z" fill="#E4E4E4"/>
<path fill-rule="evenodd" clip-rule="evenodd" d="M150.2 244.079C150.2 244.079 184.108 234.715 214.197 244.67C220.902 276.67 237.793 289.503 240.333 338.493C206.178 355.073 164.447 325.745 129.296 341.896C119.509 318.76 134.021 263.395 150.2 244.079Z" fill="#48C4A0"/>
<path fill-rule="evenodd" clip-rule="evenodd" d="M184.935 126.244C191.411 130.147 197.774 132.033 200.76 131.263C208.25 129.333 208.938 101.935 203.143 91.1339C197.349 80.3328 167.558 75.625 166.057 97.0255C165.536 104.453 168.654 111.081 173.262 116.49L165 155H189L184.935 126.244Z" fill="#C79E79"/>
<path fill-rule="evenodd" clip-rule="evenodd" d="M193.664 79.37C190.384 78.37 185.624 78.0308 183.621 78.2603C184.76 75.5308 185.212 72.4899 184.844 69.5291C184.485 66.6521 183.2 64.2024 182.011 61.6354C181.463 60.4522 180.842 59.2754 179.916 58.3704C178.973 57.4483 177.778 56.8397 176.526 56.5494C175.245 56.2522 173.905 56.2769 172.622 56.5466C172.054 56.6659 171.545 56.9255 170.988 57.0698C170.418 57.2176 170.141 56.8608 169.727 56.5021C168.73 55.638 167.268 55.2114 166.006 55.0587C164.59 54.8875 163.122 55.101 161.771 55.5664C160.457 56.0194 159.195 56.7551 158.245 57.8268C157.822 58.3039 157.438 58.8469 157.188 59.4464C157.086 59.6924 157.069 59.8381 156.823 59.9283C156.596 60.0117 156.331 60.0141 156.096 60.0935C153.831 60.8609 151.893 62.6117 150.839 64.8595C150.223 66.1709 149.932 68.4798 150.011 71.0677C150.091 73.6555 152.428 80.4081 154.614 82.8711C156.564 85.0695 159.432 86.5203 162.199 87.1553C160.362 89.2548 159.14 91.8784 158.235 94.5467C157.253 97.445 156.646 100.457 156.421 103.525C156.208 106.44 156.188 109.524 156.872 112.377C157.511 115.045 158.878 117.234 161.161 118.622C162.206 119.258 163.331 119.736 164.463 120.173C165.578 120.603 166.696 121.022 167.864 121.263C170.075 121.72 172.622 121.642 174.325 119.882C174.939 119.248 175.614 118.451 176.062 117.676C176.223 117.397 176.32 117.215 176.124 116.943C175.89 116.616 175.511 116.366 175.21 116.111C173.493 114.656 172.431 112.713 172.163 110.405C171.891 108.063 172.52 105.039 174.797 104.017C177.609 102.755 180.704 104.204 183.203 105.554C184.265 101.806 186.445 98.4315 189.864 96.7124C193.645 94.8105 197.985 94.5879 201.871 92.9561C202.884 92.5309 203.916 92.0482 204.661 91.1818C204.973 90.8197 205.338 90.35 205.463 89.871C205.626 89.2419 205.22 88.7145 204.907 88.2241C203.245 85.6236 196.943 80.37 193.664 79.37Z" fill="#191847"/>
<path fill-rule="evenodd" clip-rule="evenodd" d="M122.645 230.917C122.645 230.917 116.742 289.416 114.234 295.551C113.009 298.551 103.049 308.1 96.062 313.648C93.2575 315.874 94.658 318.374 95.8189 318.983C105.261 323.933 110.757 316.911 118.335 312.718C126.637 308.124 126.703 319.449 133.293 315.927C130.875 311.392 125.38 303.022 127.287 297.14C128.559 293.218 143.497 229.537 143.497 229.537L122.645 230.917Z" fill="#B28B67"/>
<path fill-rule="evenodd" clip-rule="evenodd" d="M254.354 184.902L293.847 187.447C302.393 184.752 310.047 183.304 316.809 183.103C318.637 183.417 321.396 184.655 316.37 187.351C311.344 190.047 306.179 193.108 306.563 195.165C306.947 197.221 311.096 197.321 311.17 200.381C311.219 202.42 304.654 201.426 291.474 197.4L257.806 203.385L254.354 184.902Z" fill="#B28B67"/>
<path fill-rule="evenodd" clip-rule="evenodd" d="M154.396 145.705L160.881 139.797C202.843 145.857 242.633 183.611 290.961 186.182L289.309 201.166C227.284 230.811 178.045 185.211 154.396 145.705Z" fill="#E1B002"/>
<path fill-rule="evenodd" clip-rule="evenodd" d="M145.751 250.329C145.751 250.329 197.632 246.692 222.075 244.978C225.563 244.734 224.553 239.744 223.871 237.238C215.996 208.318 191.067 178.295 188.14 136.547L165.883 134.638C149.726 165.201 145.956 201.7 145.751 250.329Z" fill="#DDE3E9"/>
<path fill-rule="evenodd" clip-rule="evenodd" d="M138.638 271.879C135.785 280.358 132.925 287.782 130.143 293.526L113.774 294.673C108.021 237.855 126.508 192.529 142.698 164.846C138.672 164.84 134.939 163.417 132.364 159.453C123.3 145.498 125.645 137.3 134.06 134.07C138.688 132.293 143.204 132.968 148.611 133.775C153.035 134.436 158.055 135.186 164.219 134.754C164.221 134.754 164.223 134.754 164.225 134.754C164.822 134.712 165.369 134.714 165.868 134.756L173.202 134.661C173.202 134.661 209.909 233.106 198.965 267.65L138.638 271.879Z" fill="#FFCE21"/>
<path fill-rule="evenodd" clip-rule="evenodd" d="M138.637 271.879C142.38 260.754 146.111 247.814 149.639 234.472C152.298 248.706 156.062 262.925 161.185 270.298L138.637 271.879Z" fill="black" fill-opacity="0.1"/>
<defs>
<clipPath id="clip0">
<rect width="533" height="493" fill="white" transform="translate(114 31)"/>
</clipPath>
<clipPath id="clip1">
<rect width="228" height="19" fill="white" transform="translate(208 88.1)"/>
</clipPath>
<clipPath id="clip2">
<rect width="228" height="16" fill="white" transform="translate(208 140.7)"/>
</clipPath>
<clipPath id="clip3">
<rect width="228" height="16" fill="white" transform="translate(208 187.7)"/>
</clipPath>
<clipPath id="clip4">
<rect width="228" height="16" fill="white" transform="translate(208 328.7)"/>
</clipPath>
<clipPath id="clip5">
<rect width="228" height="16" fill="white" transform="translate(208 281.7)"/>
</clipPath>
<clipPath id="clip6">
<rect width="228" height="16" fill="white" transform="translate(208 234.7)"/>
</clipPath>
<clipPath id="clip7">
<rect width="100" height="66" fill="white" transform="translate(298 163.192) rotate(-14)"/>
</clipPath>
</defs>
</svg>
