<svg width="181" height="563" viewBox="0 0 181 563" fill="none" xmlns="http://www.w3.org/2000/svg">
<path d="M8.40808 507.445C28.4468 507.445 43.8099 502.481 54.4972 492.553C65.1845 482.626 70.5281 467.83 70.5281 448.166C70.5281 442.248 70.1464 435.852 69.3831 428.98C68.8105 422.107 68.1425 415.139 67.3792 408.075C66.8066 400.82 66.1386 393.661 65.3752 386.597C64.8027 379.533 64.5165 372.851 64.5165 366.551C64.5165 346.506 67.57 329.419 73.677 315.291C79.9749 300.973 89.9943 289.709 103.735 281.5C89.9943 273.482 79.9749 262.409 73.677 248.281C67.57 233.963 64.5165 216.685 64.5165 196.449C64.5165 190.149 64.8027 183.467 65.3752 176.403C66.1386 169.339 66.8066 162.275 67.3792 155.212C68.1425 147.957 68.8105 140.893 69.3831 134.02C70.1464 127.148 70.5281 120.752 70.5281 114.834C70.5281 95.1697 65.1845 80.4695 54.4972 70.733C43.8099 60.8055 28.4468 55.8418 8.40808 55.8418H0.106445V0H8.40808C26.5383 0 43.0465 2.57731 57.9324 7.73194C72.8183 12.8866 85.5094 20.3321 96.0059 30.0687C106.502 39.8052 114.613 51.7372 120.339 65.8647C126.064 79.8013 128.927 95.7425 128.927 113.688C128.927 120.561 128.64 127.911 128.068 135.739C127.495 143.566 126.827 151.393 126.064 159.221C125.301 166.857 124.633 174.112 124.06 180.985C123.488 187.858 123.201 193.776 123.201 198.74C123.201 209.622 124.156 218.594 126.064 225.658C128.163 232.722 131.408 238.354 135.797 242.554C140.377 246.563 146.103 249.427 152.973 251.145C160.034 252.672 168.431 253.436 178.165 253.436H180.741V309.564H178.165C168.431 309.564 160.034 310.423 152.973 312.141C146.103 313.669 140.377 316.532 135.797 320.732C131.408 324.742 128.163 330.278 126.064 337.342C124.156 344.406 123.201 353.378 123.201 364.26C123.201 369.224 123.488 375.238 124.06 382.302C124.633 389.174 125.301 396.525 126.064 404.352C126.827 411.988 127.495 419.72 128.068 427.548C128.64 435.375 128.927 442.63 128.927 449.312C128.927 467.258 126.064 483.199 120.339 497.135C114.613 511.263 106.502 523.195 96.0059 532.931C85.5094 542.668 72.8183 550.113 57.9324 555.268C43.0465 560.423 26.5383 563 8.40808 563H0.106445V507.445H8.40808Z" fill="white" fill-opacity="0.5"/>
</svg>
