<svg width="181" height="563" viewBox="0 0 181 563" fill="none" xmlns="http://www.w3.org/2000/svg">
<path d="M180.635 507.445V563H172.333C154.203 563 137.694 560.423 122.809 555.268C107.923 550.113 95.1361 542.668 84.4488 532.931C73.9523 523.195 65.8414 511.263 60.1161 497.135C54.3907 483.199 51.5281 467.258 51.5281 449.312C51.5281 442.63 51.8143 435.375 52.3869 427.548C53.1503 419.72 53.8182 411.988 54.3907 404.352C55.1541 396.525 55.8221 389.174 56.3946 382.302C57.158 375.238 57.5397 369.224 57.5397 364.26C57.5397 353.378 56.49 344.406 54.3907 337.342C52.2915 330.278 49.0471 324.742 44.6577 320.732C40.2682 316.532 34.5429 313.669 27.4816 312.141C20.4204 310.423 12.0232 309.564 2.29014 309.564H0V253.436H2.29014C12.0232 253.436 20.4204 252.672 27.4816 251.145C34.5429 249.427 40.2682 246.563 44.6577 242.554C49.0471 238.354 52.2915 232.722 54.3907 225.658C56.49 218.594 57.5397 209.622 57.5397 198.74C57.5397 193.776 57.158 187.858 56.3946 180.985C55.8221 174.112 55.1541 166.857 54.3907 159.221C53.8182 151.393 53.1503 143.566 52.3869 135.739C51.8143 127.911 51.5281 120.561 51.5281 113.688C51.5281 95.7425 54.3907 79.8013 60.1161 65.8647C65.8414 51.7372 73.9523 39.8052 84.4488 30.0687C95.1361 20.3321 107.923 12.8866 122.809 7.73194C137.694 2.57732 154.203 0 172.333 0H180.635V55.8418H172.333C152.294 55.8418 136.931 60.8055 126.244 70.7329C115.556 80.4695 110.213 95.1697 110.213 114.834C110.213 120.752 110.499 127.148 111.072 134.02C111.644 140.893 112.312 147.957 113.075 155.212C113.839 162.275 114.507 169.339 115.079 176.403C115.652 183.467 115.938 190.149 115.938 196.449C115.938 216.685 112.885 233.963 106.778 248.281C100.671 262.409 90.6512 273.482 76.7196 281.5C90.6512 289.709 100.671 300.973 106.778 315.291C112.885 329.419 115.938 346.506 115.938 366.551C115.938 372.851 115.652 379.533 115.079 386.597C114.507 393.661 113.839 400.82 113.075 408.075C112.312 415.138 111.644 422.107 111.072 428.98C110.499 435.852 110.213 442.248 110.213 448.166C110.213 467.83 115.556 482.626 126.244 492.553C136.931 502.481 152.294 507.445 172.333 507.445H180.635Z" fill="white" fill-opacity="0.5"/>
</svg>
