<svg width="806" height="573" viewBox="0 0 806 573" fill="none" xmlns="http://www.w3.org/2000/svg">
<rect width="806" height="573" fill="white"/>
<g opacity="0.5">
<path fill-rule="evenodd" clip-rule="evenodd" d="M129.908 110.672C128.335 112.243 128.946 117.824 128.913 119.89C128.862 123.106 129.063 126.292 129.331 129.496C129.512 131.642 130.527 152.114 133.353 150.542C134.946 149.656 133.947 143.734 133.944 141.86C133.938 137.696 133.764 133.542 133.487 129.387C133.229 125.529 133.067 121.716 133.215 117.851C133.251 116.908 134.134 106.439 129.908 110.672" fill="#89C5CC"/>
<path fill-rule="evenodd" clip-rule="evenodd" d="M198.409 108.149C184.896 108.256 171.388 108.923 157.881 109.331C151.381 109.528 144.886 109.778 138.394 110.138C136.181 110.261 131.436 109.552 129.593 110.731C125.501 113.348 132.1 113.96 133.859 113.896C160.59 112.927 187.329 111.65 214.082 111.59C227.206 111.561 240.323 111.934 253.448 111.851C258.465 111.819 264.02 109.657 265.287 115.497C266.717 122.086 265.074 129.423 264.627 136.045C264.329 140.465 264.435 144.794 264.634 149.211C264.762 152.04 264.429 155.228 264.93 158.005C265.411 160.679 267.333 162.282 269.095 159.287C270.148 157.497 269.624 153.078 269.694 151.005C269.788 148.213 269.7 145.421 269.7 142.628C269.699 135.811 270.661 129.022 270.534 122.206C270.452 117.811 270.219 109.844 264.676 108.788C258.572 107.625 251.069 108.794 244.822 108.723C229.344 108.546 213.892 108.028 198.409 108.149" fill="#89C5CC"/>
<path fill-rule="evenodd" clip-rule="evenodd" d="M161.174 150.786C156.078 150.786 150.982 150.817 145.887 150.901C141.517 150.973 134.647 150.063 130.579 151.626C127.795 152.696 127.056 155.805 130.579 156.633C134.423 157.536 140.215 156.059 144.236 155.989C164.4 155.633 184.758 155.169 204.894 156.444C223.762 157.638 242.993 158.797 261.888 157.536C263.478 157.43 271.586 157.107 267.886 154.068C265.728 152.294 256.979 153.46 254.174 153.376C244.28 153.077 234.376 153.011 224.485 152.636C214.722 152.265 205.004 151.168 195.238 150.896C183.893 150.58 172.523 150.786 161.174 150.786" fill="#89C5CC"/>
<path fill-rule="evenodd" clip-rule="evenodd" d="M156.075 121.804C164.017 122.151 171.875 133.669 163.839 139.235C156.3 144.459 142.172 138.734 146.364 128.606C145.761 130.07 147.126 127.015 147.143 126.995C147.94 126.056 149.371 125.016 150.354 124.276C151.478 123.428 152.649 122.496 154.005 122.071C154.895 121.792 154.755 122.841 156.075 121.804M152.207 117.65C148.49 119.101 146.794 120.738 144.239 123.701C142.472 125.751 140.218 126.83 140.238 129.6C140.243 130.213 141.03 130.887 141.167 131.478C141.355 132.294 141.137 133.34 141.286 134.207C142.824 143.157 153.501 146.174 161.317 144.484C168.125 143.012 173.217 136.477 171.64 129.37C170.052 122.216 159.444 114.819 152.207 117.65" fill="#89C5CC"/>
<path fill-rule="evenodd" clip-rule="evenodd" d="M148.896 130.143C148.896 133.362 153.982 133.362 153.982 130.143C153.982 126.96 148.896 126.823 148.896 130.143" fill="#89C5CC"/>
<path fill-rule="evenodd" clip-rule="evenodd" d="M155.258 129.491C155.258 132.049 159.299 132.049 159.299 129.491C159.299 126.962 155.258 126.854 155.258 129.491" fill="#89C5CC"/>
<path fill-rule="evenodd" clip-rule="evenodd" d="M156.51 134.767C155.216 135.264 153.574 134.233 152.512 134.912C150.631 136.117 152.517 137.207 153.525 137.69C158.065 139.869 158.873 133.862 156.51 134.767" fill="#89C5CC"/>
<path fill-rule="evenodd" clip-rule="evenodd" d="M225.85 127.632C225.714 127.689 225.233 127.893 225.85 127.632ZM206.077 124.742C202.679 125.509 199.81 128.683 196.118 128.258C193.289 127.933 191.373 125.202 188.58 124.806C185.007 124.298 175.282 132.448 180.395 133.847C183.378 134.663 185.033 129.212 187.668 128.922C189.753 128.693 192.588 131.25 194.748 131.614C198.778 132.293 201.546 130.073 205.083 128.641C208.928 127.086 211.115 128.487 214.458 130.216C217.097 131.58 219.583 132.469 222.602 131.906C225.436 131.378 228.996 128.463 231.849 128.762C234.643 129.055 236.637 131.971 239.511 132.242C240.696 132.353 242.46 132.757 242.261 130.928C242.101 129.465 240.468 129.713 239.446 129.18C236.818 127.812 234.36 125.388 231.189 125.595C228.803 125.751 226.631 127.427 224.433 128.229C217.233 130.855 213.185 123.148 206.077 124.742" fill="#89C5CC"/>
<path fill-rule="evenodd" clip-rule="evenodd" d="M212.092 171.111C198.204 171.239 184.268 171.445 170.419 172.558C167.135 172.822 133.608 175.988 133.672 176.216C133.789 176.637 138.101 177.282 138.075 177.381C137.784 176.661 137.12 176.362 136.082 176.487C167.879 176.487 199.576 173.64 231.415 174.152C239.416 174.28 247.446 174.227 255.44 174.479C257.436 174.542 262.381 175.972 263.949 175.071C268.062 172.706 260.589 172.433 259.352 172.334C243.683 171.08 227.805 170.954 212.092 171.111" fill="#69A1AC"/>
<path fill-rule="evenodd" clip-rule="evenodd" d="M129.556 177.859C127.479 179.941 129.391 187.43 129.473 190.245C129.591 194.314 129.494 198.412 129.851 202.471C130.259 207.107 130.891 212.047 132.107 216.545C132.777 219.023 135.129 222.961 136.061 218.459C136.726 215.243 135.716 210.976 135.364 207.7C134.894 203.317 134.78 198.992 134.763 194.588C134.747 190.75 134.673 186.897 134.358 183.071C134.195 181.085 133.196 174.239 129.556 177.859" fill="#69A1AC"/>
<path fill-rule="evenodd" clip-rule="evenodd" d="M181.794 215.998C171.938 216.167 162.061 216.4 152.222 217.015C148.189 217.268 144.159 217.644 140.141 218.07C139.322 218.157 130.247 218.525 134.302 221.874C136.132 223.387 143.661 221.296 146.147 221.078C150.33 220.711 154.511 220.473 158.705 220.296C168.424 219.883 178.172 219.519 187.9 219.687C205.667 219.996 223.319 220.133 241.09 219.737C243.615 219.681 263.396 220.209 264.068 217.583C264.609 215.466 257.535 216.437 256.245 216.475C251.514 216.616 246.782 216.584 242.048 216.559C221.997 216.457 201.83 215.659 181.794 215.998" fill="#69A1AC"/>
<path fill-rule="evenodd" clip-rule="evenodd" d="M260.719 174.347C261.031 183.122 262.526 191.887 263.004 200.689C263.222 204.712 263.479 208.732 263.676 212.757C263.74 214.056 263.216 217.184 264.752 217.931C266.858 218.955 267.141 216.891 267.536 215.495C268.675 211.462 267.904 206.224 267.801 202.081C267.701 198.07 267.694 194.051 267.398 190.047C267.095 185.957 266.271 181.943 265.889 177.867C265.728 176.143 266.293 173.274 264.463 172.204C262.881 171.279 260.65 172.445 260.719 174.347" fill="#69A1AC"/>
<path fill-rule="evenodd" clip-rule="evenodd" d="M163.845 188.944C163.882 188.973 163.919 189.002 163.956 189.031C163.919 189.002 163.882 188.973 163.845 188.944M155.469 186.344C158.592 187.236 161.157 186.904 164.141 189.177C166.614 191.063 169.151 193.821 169.971 196.869C171.866 203.911 165.441 207.771 159.418 207.847C153.248 207.924 144.115 206.493 144.431 198.585C144.674 192.509 149.11 186.58 155.469 186.344M155.689 182.364C147.59 182.767 141.057 191.863 141.127 199.518C141.212 208.797 151.725 211.188 159.194 211.252C167.623 211.324 176.028 205.504 173.77 196.025C171.96 188.431 163.477 181.96 155.689 182.364" fill="#69A1AC"/>
<path fill-rule="evenodd" clip-rule="evenodd" d="M147.542 194.822C147.542 197.41 151.63 197.41 151.63 194.822C151.63 192.265 147.542 192.155 147.542 194.822" fill="#69A1AC"/>
<path fill-rule="evenodd" clip-rule="evenodd" d="M156.117 193.687C156.117 196.295 160.237 196.295 160.237 193.687C160.237 191.109 156.117 190.998 156.117 193.687" fill="#69A1AC"/>
<path fill-rule="evenodd" clip-rule="evenodd" d="M151.39 199.589C148.729 202.245 158.076 206.902 160.281 203.207C162.091 200.171 158.149 201.178 156.752 201.014C155.233 200.835 152.629 198.352 151.39 199.589" fill="#69A1AC"/>
<path fill-rule="evenodd" clip-rule="evenodd" d="M226.124 193.74C225.868 193.848 225.868 193.848 226.124 193.74ZM191.022 189.416C188.328 189.921 179.486 192.904 179.367 196.1C179.148 201.91 187.808 195.959 189.688 195.195C194.796 193.119 197.48 197.354 202.612 197.577C207.068 197.771 211.166 193.957 215.364 194.408C219.763 194.881 221.878 199.56 226.956 197.076C229.643 195.762 229.575 193.735 226.559 193.544C224.737 193.429 223.484 194.182 221.584 193.398C218.612 192.172 217.415 190.176 213.859 190.493C211.175 190.733 208.75 192.245 206.13 192.831C200.132 194.171 196.805 188.332 191.022 189.416" fill="#69A1AC"/>
<path fill-rule="evenodd" clip-rule="evenodd" d="M246.818 196.263C246.632 196.341 246.632 196.341 246.818 196.263ZM247.497 193.844C247.527 193.857 247.73 194.139 247.497 193.844ZM244.409 191.997C244.293 192.087 244.293 192.087 244.409 191.997ZM244.476 191.974C245.075 192.333 249.89 195.625 246.393 196.401C244.617 196.794 243.148 193.222 244.476 191.974M242.882 188.327C235.169 191.844 243.469 204.429 249.522 199.316C252.069 197.164 252.404 192.815 249.926 190.573C248.442 189.23 244.897 187.406 242.882 188.327" fill="#69A1AC"/>
<path fill-rule="evenodd" clip-rule="evenodd" d="M170.477 237.921C160.852 237.924 151.143 237.722 141.531 238.292C139.914 238.388 133.752 238.08 132.918 239.771C131.394 242.864 137.734 241.329 138.655 241.236C157.793 239.32 177.784 240.423 196.985 240.969C212.689 241.415 228.308 241.692 243.993 242.502C248.116 242.714 252.235 242.949 256.355 243.198C257.698 243.279 261.078 244.169 261.361 242.024C261.623 240.039 257.407 240.488 256.354 240.432C247.979 239.991 239.61 239.529 231.237 239.058C211.085 237.922 190.661 237.917 170.477 237.921" fill="#89C5CC"/>
<path fill-rule="evenodd" clip-rule="evenodd" d="M132.609 241.36C130.812 243.147 131.654 249.971 131.604 252.227C131.516 256.171 131.33 260.113 131.247 264.057C131.16 268.178 131.28 272.319 131.524 276.435C131.626 278.163 133.045 286.515 135.278 281.736C136.276 279.6 135.254 273.651 135.269 271.23C135.297 266.826 135.534 262.44 135.753 258.041C135.941 254.26 135.948 250.475 136.114 246.693C136.166 245.488 136.309 237.65 132.609 241.36" fill="#89C5CC"/>
<path fill-rule="evenodd" clip-rule="evenodd" d="M262.98 276.595C253.613 277.555 244.096 277.102 234.694 277.811C226.591 278.422 218.495 278.672 210.371 278.844C191.975 279.232 173.547 279.611 155.204 281.144C151.024 281.493 146.848 281.864 142.657 282.051C140.561 282.145 131.764 281.191 131.109 283.4C129.993 287.164 139.4 285.674 141.429 285.616C145.891 285.487 150.332 285.164 154.781 284.825C173.485 283.4 192.259 282.974 211.003 282.382C221.196 282.06 231.319 281.314 241.49 280.636C246.56 280.298 251.643 280.287 256.712 279.959C258.039 279.873 262.734 280.042 263.688 278.975C264.343 278.242 264.509 276.453 262.98 276.595" fill="#89C5CC"/>
<path fill-rule="evenodd" clip-rule="evenodd" d="M259.805 242C260.126 250.983 260.633 259.958 260.937 268.94C261.028 271.641 260.212 276.482 261.716 278.864C264.135 282.695 266.022 278.641 266.465 276.254C267.863 268.721 266.36 260.4 265.97 252.82C265.821 249.929 266.719 243.493 265.322 240.905C263.991 238.44 259.685 238.687 259.805 242" fill="#89C5CC"/>
<path fill-rule="evenodd" clip-rule="evenodd" d="M244.079 254.793C247.668 255.765 248.192 263.567 244.143 264.144C238.116 265.003 240.752 256.402 244.079 254.793M243.074 251.691C241.979 251.657 239.453 251.355 238.778 252.246C238.214 252.992 238.784 254.564 238.718 255.275C238.481 257.813 236.417 259.279 237.34 262.275C237.966 264.309 239.643 266.221 241.687 266.927C252.472 270.655 252.341 249.816 243.074 251.691" fill="#89C5CC"/>
<path fill-rule="evenodd" clip-rule="evenodd" d="M145.702 253.091C145.675 253.125 145.648 253.159 145.622 253.194C145.648 253.159 145.675 253.125 145.702 253.091M154.173 248.584C154.131 248.223 154.088 247.862 154.046 247.501C159.894 250.261 164.547 255.396 162.605 262.288C161.124 267.546 155.771 269.411 150.784 268.113C145.264 266.675 142.626 262.125 144.114 256.538C144.801 253.96 146.91 250.496 149.635 249.667C150.904 249.281 153.71 250.265 154.173 248.584M150.753 246.401C149.274 246.501 147.834 247.117 146.627 247.96C147.757 247.004 149.263 246.435 150.753 246.401M150.796 243.005C147.142 243.117 144.747 245.329 142.58 247.985C141.9 248.819 139.6 251.03 139.885 252.154C140.11 253.042 140.699 254.341 141.94 253.35C135.442 266.3 152.228 277.346 162.475 268.34C172.039 259.936 162.55 242.611 150.796 243.005" fill="#89C5CC"/>
<path fill-rule="evenodd" clip-rule="evenodd" d="M147.476 255.034C147.476 256.759 150.153 256.759 150.153 255.034C150.153 253.31 147.476 253.31 147.476 255.034" fill="#89C5CC"/>
<path fill-rule="evenodd" clip-rule="evenodd" d="M152.044 255.329C152.044 257.082 154.764 257.082 154.764 255.329C154.764 253.576 152.044 253.576 152.044 255.329" fill="#89C5CC"/>
<path fill-rule="evenodd" clip-rule="evenodd" d="M154.117 261.484C152.845 261.587 148.186 261.155 147.369 262.269C146.002 264.132 148.183 264.197 149.254 264.398C150.219 264.579 154.413 264.477 155.004 263.62C155.526 262.863 155.404 261.374 154.117 261.484" fill="#89C5CC"/>
<path fill-rule="evenodd" clip-rule="evenodd" d="M210.241 256.653C210.022 256.744 210.022 256.744 210.241 256.653ZM192.64 255.366C189.772 255.577 187.344 257.226 184.602 257.884C181.676 258.587 180.409 257.295 177.748 256.449C174.98 255.569 173.011 255.917 170.786 257.807C169.526 258.878 166.76 261.344 167.548 263.247C169.352 267.602 173.436 260.516 175.357 260.186C178.353 259.672 181.019 262.292 184.475 261.543C187.606 260.864 190.384 258.714 193.654 258.691C196.389 258.672 198.966 260.168 201.666 260.53C205.788 261.083 208.494 259.619 212.304 258.533C215.608 257.591 217.924 258.833 221.032 259.878C222.452 260.356 227.191 262.092 226.319 258.944C226.072 258.055 219.827 256.465 218.859 256.159C215.445 255.08 213.283 255.5 210.03 256.74C207.318 257.775 205.036 258.279 202.128 257.71C198.924 257.083 196.01 255.11 192.64 255.366" fill="#89C5CC"/>
</g>
<g opacity="0.5">
<path fill-rule="evenodd" clip-rule="evenodd" d="M324.575 111.012C325.038 101.055 325.674 91.1128 326.009 81.1503C326.176 76.2136 326.306 71.2764 326.432 66.3387C326.459 65.2393 326.488 64.1403 326.513 63.0408C326.594 59.3055 326.151 59 329.91 58.6684C346.679 57.1882 363.515 56.6976 380.304 55.3584C400.553 53.7433 420.907 52.628 441.213 52.1281C450.236 51.9056 459.298 51.4446 468.323 51.7252C470.322 51.7873 474.247 51.267 475.035 52.8214C475.375 53.4929 474.661 55.8036 474.571 56.5784C474.288 58.999 474.024 61.428 473.861 63.8606C472.901 78.208 473.473 92.9171 476.251 107.047C469.734 103.372 461.5 100.211 453.904 100.838C446.16 101.478 440.367 105.952 434.168 110.07C430.662 112.4 429.481 113.012 425.983 110.756C422.968 108.811 420.116 106.588 417.272 104.405C412.883 101.037 408.741 97.3855 404.485 93.8548C396.66 87.3627 385.878 78.1223 375.07 80.8429C367.348 82.7868 360.218 87.0307 353.516 91.1842C343.558 97.3549 334.545 104.912 324.575 111.012M458.779 47.3036C420.306 47.3036 382.121 51.0333 343.756 53.0509C339.749 53.2615 335.756 53.5717 331.764 53.957C329.103 54.2139 322.596 53.1353 320.852 55.4089C319.688 56.9258 320.688 57.1534 320.852 58.5947C321.058 60.411 320.936 62.5632 320.883 64.4857C320.755 69.1183 320.62 73.7503 320.515 78.3833C320.118 95.8933 319.869 113.4 320.578 130.905C320.733 134.723 322.124 140.009 321.363 143.719C320.812 146.405 318.97 148.039 323.218 148.535C327.398 149.024 332.509 147.781 336.693 147.383C340.901 146.983 345.108 146.548 349.321 146.201C367.638 144.692 386.133 144.92 404.499 144.418C423.029 143.912 441.567 143.88 460.104 143.869C467.86 143.865 476.723 144.301 484.291 142.167C486.953 141.415 487.384 141.045 486.727 138.404C486.603 137.902 485.799 137.717 485.563 136.811C485.242 135.578 485.407 134.079 485.332 132.796C485.087 128.604 485.001 124.404 484.804 120.21C484.474 113.201 483.266 106.399 482.372 99.4611C481.341 91.4485 481.394 83.3131 481.373 75.2481C481.361 70.7747 481.476 66.316 481.835 61.8551C482.066 58.9939 483.475 54.7222 482.76 52.0539C482.404 50.7254 481.822 49.6718 480.439 49.1001C479.563 48.7374 478.826 49.0212 477.96 48.9294C476.933 48.8204 476.292 48.6762 475.062 48.3975C469.789 47.2025 464.151 47.3036 458.779 47.3036" fill="#69A1AC"/>
<path fill-rule="evenodd" clip-rule="evenodd" d="M437.487 66.3523C437.484 69.1406 437.049 73.2552 438.335 75.8807C439.965 79.2111 442.005 78.1701 442.545 75.0405C442.855 73.2473 442.847 67.9405 442.271 66.3523C441.456 64.1042 437.487 62.573 437.487 66.3523" fill="#89C5CC"/>
<path fill-rule="evenodd" clip-rule="evenodd" d="M442.165 67.429C439.548 67.5213 431.924 66.8929 430.153 68.9977C427.115 72.6078 432.404 73.2472 434.674 73.0451C437.302 72.8113 445.423 73.3817 447.183 71.2746C450.127 67.7494 444.224 67.3539 442.165 67.429" fill="#89C5CC"/>
<path fill-rule="evenodd" clip-rule="evenodd" d="M340.583 160.579C352.091 162.578 348.511 180.124 337.621 176.06C333.827 174.644 328.236 170.552 330.334 165.731C331.9 162.129 337.006 160.236 340.583 160.579M335.818 155.124C328.334 156.383 323.217 164.483 325.783 171.547C328.259 178.363 337.648 183.354 344.573 180.905C351.183 178.566 354.481 169.771 352.252 163.337C349.924 156.614 342.338 154.026 335.818 155.124" fill="#89C5CC"/>
<path fill-rule="evenodd" clip-rule="evenodd" d="M405.816 162.632C402.951 162.87 400.475 164.876 397.592 165.231C394.896 165.563 392.662 164.64 390.138 163.903C387.087 163.012 384.289 162.621 381.171 163.412C378.789 164.017 376.439 165.638 373.964 165.834C369.094 166.219 363.434 160.662 359.632 166.947C357.809 169.959 360.456 171.9 363.182 170.495C366.024 169.03 364.629 168.506 368.155 169.371C371.096 170.092 373.474 170.484 376.42 169.473C379.089 168.558 381.432 166.883 384.333 166.694C387.174 166.51 389.645 167.804 392.36 168.362C395.699 169.049 398.653 168.529 401.817 167.483C404.826 166.487 406.027 165.943 409.064 166.831C410.986 167.393 415.187 169.18 417.058 167.74C420.294 165.251 415.962 164.887 414.256 164.533C411.509 163.964 408.667 162.398 405.816 162.632" fill="#89C5CC"/>
<path fill-rule="evenodd" clip-rule="evenodd" d="M471.384 160.959C471.407 160.977 471.43 160.995 471.452 161.012C471.43 160.995 471.406 160.977 471.384 160.959M468.571 160.371C472.754 160.64 477.277 168.26 471.735 168.531C467.834 168.721 463.469 162.049 468.571 160.371M467.984 154.136C454.758 157.829 460.804 176.477 473.562 174.323C479.357 173.344 481.321 166.631 479.405 161.661C478.582 159.527 476.978 157.727 475.061 156.499C473.647 155.592 469.601 153.686 467.984 154.136" fill="#89C5CC"/>
<path fill-rule="evenodd" clip-rule="evenodd" d="M406.276 193.065C417.915 192.666 429.555 192.266 441.206 192.158C447.52 192.1 453.8 192.21 460.105 192.572C462.901 192.732 465.696 192.887 468.494 193.005C468.977 193.026 469.644 192.993 470.38 192.957C472.112 192.872 474.227 192.768 475.222 193.294C480.788 196.238 469.448 196.561 468.07 196.538C464.983 196.486 461.899 196.333 458.815 196.181C456.12 196.048 453.425 195.915 450.727 195.848C433.42 195.423 416.007 196.201 398.671 196.975C394.697 197.152 390.727 197.33 386.763 197.492C382.554 197.665 378.347 197.777 374.139 197.888C368.125 198.048 362.111 198.208 356.097 198.546C353.8 198.675 351.504 198.811 349.208 198.948C345.919 199.144 342.63 199.34 339.339 199.513C336.763 199.649 334.186 199.781 331.606 199.846C331.142 199.857 330.537 199.922 329.876 199.992L329.876 199.992H329.876C328.277 200.163 326.353 200.368 325.313 199.943C324.063 199.432 323.051 198.717 323.739 197.201C324.32 195.92 326.433 196.074 327.974 196.186C328.395 196.217 328.773 196.244 329.065 196.238C333.989 196.143 338.902 195.866 343.817 195.565C345.615 195.455 347.412 195.342 349.209 195.229L349.21 195.229L349.21 195.229L349.21 195.229L349.21 195.229C358.567 194.641 367.915 194.053 377.295 193.893C386.959 193.728 396.617 193.396 406.276 193.065ZM467.065 269.668L470.411 269.628C472.139 269.778 472.912 271.592 471.802 272.986C470.953 274.054 467.684 274.102 465.553 274.133C464.962 274.142 464.459 274.15 464.119 274.177C458.556 274.624 453.004 274.825 447.424 274.879C435.674 274.99 423.968 275.494 412.237 276.163C400.229 276.848 388.211 277.105 376.192 277.363H376.191C367.349 277.552 358.506 277.742 349.667 278.101C344.605 278.307 339.542 278.461 334.478 278.594C333.934 278.608 333.21 278.686 332.391 278.774C329.192 279.12 324.544 279.622 323.491 277.081C322.556 274.827 323.855 273.789 325.755 273.317C325.455 271.982 325.511 270.106 325.542 269.031C325.552 268.708 325.559 268.457 325.554 268.315C325.507 266.968 325.473 265.62 325.44 264.272C325.402 262.745 325.365 261.218 325.306 259.691C325.252 258.306 325.203 256.919 325.153 255.531C324.957 250.059 324.761 244.573 324.339 239.123C324.145 236.607 323.837 234.121 323.529 231.639C323.038 227.676 322.547 223.723 322.525 219.678C322.521 218.95 322.484 218.04 322.443 217.013C322.233 211.761 321.901 203.457 325.161 200.928C330.91 197.573 329.773 207.256 329.266 211.577C329.183 212.291 329.116 212.858 329.1 213.197C328.77 220.382 329.218 227.252 329.941 234.392C330.43 239.214 330.144 244.02 329.859 248.834C329.757 250.553 329.655 252.273 329.588 253.996C329.555 254.848 329.525 255.7 329.496 256.551C329.405 259.172 329.315 261.791 329.118 264.409C329.096 264.692 329.089 265.235 329.08 265.929C329.054 267.886 329.013 271.044 328.594 272.961C329.486 272.922 330.351 272.932 331.067 272.94C331.522 272.945 331.917 272.949 332.219 272.94C333.591 272.898 334.964 272.858 336.336 272.818C340.39 272.699 344.444 272.58 348.497 272.428C358.065 272.068 367.636 271.948 377.207 271.828C388.511 271.686 399.816 271.544 411.115 271.007C429.737 270.122 448.423 269.895 467.065 269.668ZM470.519 199.42C470.509 211.729 471.461 223.7 472.573 235.96C473.261 243.543 473.812 251.155 474.251 258.757C474.271 259.109 474.268 259.696 474.264 260.432V260.433C474.242 264.637 474.194 273.695 478.349 271.528C481.486 269.892 480.28 260.405 479.613 255.155L479.613 255.155C479.467 254.004 479.346 253.056 479.303 252.44C479.212 251.127 479.122 249.814 479.032 248.502C478.614 242.408 478.197 236.318 477.647 230.231L477.531 228.947C476.895 221.917 476.259 214.891 476.146 207.827C476.137 207.243 476.193 206.43 476.256 205.51C476.44 202.851 476.685 199.31 475.58 197.898C474.026 195.911 470.522 196.498 470.519 199.42Z" fill="#69A1AC"/>
<path fill-rule="evenodd" clip-rule="evenodd" d="M406.808 229.595C421.675 222.869 436.714 216.065 452.174 211.22C453.291 210.87 453.998 212.022 453.744 212.989C453.483 213.985 451.064 214.835 449.46 215.399C448.981 215.568 448.574 215.711 448.319 215.824C446.16 216.789 443.995 217.741 441.83 218.694C439.613 219.669 437.396 220.645 435.185 221.633C430.587 223.687 425.985 225.733 421.383 227.778C416.454 229.968 411.526 232.158 406.603 234.36C406.416 234.443 406.23 234.527 406.043 234.61C412.737 236.989 419.393 239.474 426.02 242.035C428.285 242.909 430.542 243.803 432.799 244.696C434.076 245.201 435.353 245.706 436.631 246.208C437.047 246.371 437.772 246.593 438.643 246.859C441.481 247.725 445.871 249.066 446.196 250.42C446.724 252.626 440.663 250.492 438.376 249.687C438.072 249.58 437.835 249.497 437.689 249.45C434.315 248.371 430.98 247.17 427.648 245.969L427.187 245.802C424.545 244.851 421.908 243.889 419.271 242.927C414.119 241.049 408.968 239.17 403.789 237.368C403.056 237.113 402.323 236.859 401.59 236.606C393.278 240.34 384.982 244.109 376.714 247.938C372.28 249.992 367.871 252.093 363.473 254.222C362.513 254.687 361.325 255.405 360.034 256.186C356.939 258.056 353.255 260.283 350.721 260.227C349.362 260.197 348.446 259.906 348.304 258.259C348.158 256.559 350.339 255.668 351.907 255.027C352.282 254.873 352.622 254.734 352.887 254.602C357.587 252.251 362.317 249.96 367.059 247.698C376.479 243.205 385.987 238.891 395.529 234.663C395.584 234.639 395.639 234.615 395.693 234.59C390.402 232.8 385.095 231.051 379.777 229.34C379.246 229.169 378.157 228.868 376.726 228.471C369.965 226.599 355.563 222.61 356.204 220.28C356.939 217.615 370.442 222.486 376.42 224.643C377.54 225.047 378.396 225.356 378.854 225.502C386.001 227.779 393.128 230.121 400.218 232.57C402.411 231.585 404.608 230.591 406.808 229.595Z" fill="#89C5CC"/>
<path fill-rule="evenodd" clip-rule="evenodd" d="M343.107 288.133C347.459 288.896 350.529 293.071 350.051 297.442C349.406 303.349 343.519 306.056 338.08 305.286C331.909 304.411 330.611 299.194 333.601 294.176C334.263 293.065 335.024 291.735 336.227 291.15C337.055 290.748 338.109 291.103 338.775 290.779C341.11 289.643 339.706 287.831 343.107 288.133M341.126 284.275C335.816 284.953 326.004 291.098 326.501 297.246C326.932 297.959 327.58 298.25 328.445 298.121C328.237 299.453 328.305 300.77 328.649 302.074C329.153 303.766 330.159 305.153 331.508 306.254C334.285 308.524 338.081 309.081 341.539 308.683C347.995 307.941 353.084 303.528 353.447 296.812C353.801 290.257 348.079 283.397 341.126 284.275" fill="#89C5CC"/>
<path fill-rule="evenodd" clip-rule="evenodd" d="M366.845 292.275C364.463 293.537 360.694 295.477 359.297 297.875C357.82 300.408 359.349 303.179 362.459 301.981C364.928 301.03 366.498 298.007 369.131 297.039C371.456 296.184 372.392 296.62 374.848 297.471C377.379 298.348 379.592 299.196 382.328 298.98C385.767 298.71 388.745 296.716 392.111 296.263C394.945 295.88 397.282 296.983 399.996 297.422C403.145 297.931 405.203 296.739 408.15 296.118C410.154 295.696 413.686 297.414 415.147 296.771C418.434 295.326 414.957 293.56 413.138 292.976C410.073 291.993 408.187 292.86 405.272 293.675C402.107 294.561 400.739 293.895 397.714 293.082C391.593 291.438 386.864 295.414 381.062 294.691C375.69 294.022 372.476 289.293 366.845 292.275" fill="#89C5CC"/>
<path fill-rule="evenodd" clip-rule="evenodd" d="M466.935 289.336C472.827 294.86 466.208 302.719 459.711 298.304C457.425 296.751 457.389 294.255 459.168 292.022C460.796 289.98 464.371 289.184 466.935 289.336V289.336ZM464.751 284.872C459.247 285.943 454.054 288.469 453.556 294.822C453.069 301.02 459.428 303.899 464.769 303.493C476.76 302.579 475.893 282.718 464.751 284.872V284.872Z" fill="#89C5CC"/>
</g>
<path opacity="0.5" fill-rule="evenodd" clip-rule="evenodd" d="M701.075 38.8184C694.245 38.9175 677.377 40.7828 674.869 46.8491C672.966 51.454 678.62 50.443 681.651 48.7674C685.75 46.5015 689.345 45.1455 694.425 44.4561C713.776 41.8283 732.369 51.2516 751.534 52.4434C758.794 52.8948 767.555 53.1889 774.487 51.4238C779.423 50.1669 780.067 47.4262 774.434 47.0086C769.647 46.6541 764.351 47.7717 759.444 47.7399C739.139 47.6096 721.089 38.5317 701.075 38.8184" fill="#C1DEE2"/>
<g opacity="0.5">
<path fill-rule="evenodd" clip-rule="evenodd" d="M132.509 326.362C124.085 326.456 115.665 326.767 107.257 327.299C99.2618 327.806 90.5867 327.421 82.7216 328.971C80.4883 329.411 77.4714 331.446 80.441 333.685C82.5283 335.259 90.1648 333.449 92.6573 333.295C101.836 332.731 111.02 332.055 120.212 331.731C128.914 331.423 137.615 331.315 146.322 331.228C147.651 331.215 149.857 330.789 151.181 331.175C153.083 331.729 152.632 331.88 152.774 334.294C153.032 338.668 152.961 343.058 152.874 347.436C152.79 351.673 152.633 355.909 152.649 360.148C152.659 363.172 151.693 369.181 153.21 371.807C155.394 375.588 157.66 371.482 157.823 368.97C158.136 364.165 157.996 359.302 157.997 354.491C157.998 349.976 158.031 345.46 157.872 340.947C157.756 337.687 158.222 331.996 156.466 329.032C154.677 326.013 150.371 326.664 147.228 326.52C142.326 326.295 137.415 326.311 132.509 326.362" fill="#89C5CC"/>
<path fill-rule="evenodd" clip-rule="evenodd" d="M78.9096 331.81C78.9189 340.294 77.9374 348.722 77.6624 357.196C77.5363 361.093 77.2804 365.371 78.2661 369.196C79.2611 373.058 82.4212 373.895 82.7851 369.583C83.5223 360.853 83.3415 351.8 83.9155 342.999C84.1181 339.892 85.4367 334.198 84.2057 331.288C83.1217 328.725 78.905 328.234 78.9096 331.81" fill="#89C5CC"/>
<path fill-rule="evenodd" clip-rule="evenodd" d="M157.906 369.207C143.276 371.144 127.981 370.438 113.247 370.742C106.178 370.889 99.1105 370.898 92.0405 370.972C89.5731 370.997 83.3071 370.059 81.1725 371.446C77.7745 373.654 81.4613 375.358 83.7109 375.406C97.663 375.712 111.77 375.071 125.72 374.613C131.987 374.407 138.275 374.306 144.526 373.774C148.374 373.446 152.579 373.128 156.316 372.094C157.112 371.873 158.846 371.919 159.024 370.833C159.134 370.162 158.935 369.065 157.906 369.207" fill="#89C5CC"/>
<path fill-rule="evenodd" clip-rule="evenodd" d="M97.0703 381.54C93.0042 381.564 80.7513 379.675 79.0673 383.64C76.8224 388.928 85.58 387.694 87.9353 387.633C93.2847 387.496 98.6304 387.481 103.981 387.484C109.231 387.486 114.481 387.452 119.73 387.327C121.251 387.291 124.791 387.922 125.666 386.09C126.331 384.699 125.805 383.601 124.579 382.864C121.628 381.091 113.963 382.119 110.509 381.959C106.036 381.754 101.548 381.54 97.0703 381.54" fill="#89C5CC"/>
<path fill-rule="evenodd" clip-rule="evenodd" d="M146.537 382.519C144.213 382.657 139.513 381.699 137.431 382.763C135.065 383.972 135.899 385.864 137.941 386.696C139.356 387.272 145.159 386.97 146.537 386.303C147.973 385.607 149.597 382.331 146.537 382.519" fill="#89C5CC"/>
<path fill-rule="evenodd" clip-rule="evenodd" d="M172.013 332.643C169.531 333.324 170.284 347.414 170.22 349.647C170.045 355.767 169.357 363.464 171.39 369.358C172.687 373.115 175.178 372.605 174.753 368.65C174.381 365.178 173.741 361.746 173.464 358.252C172.839 350.344 171.987 341.91 172.578 333.997C172.83 334.457 175.184 338.722 175.738 338.403C175.571 338.503 173.023 332.376 172.013 332.643" fill="#89C5CC"/>
<path fill-rule="evenodd" clip-rule="evenodd" d="M199.93 327.453C194.907 327.528 189.885 327.617 184.864 327.756C180.871 327.867 174.598 327.211 170.937 328.891C166.577 330.89 168.645 335.345 172.74 335.439C176.363 335.523 180.226 334.706 183.881 334.581C193.754 334.242 203.645 334.171 213.522 334.086C222.456 334.009 231.769 334.962 240.624 333.62C241.937 345.283 238.385 356.995 239.593 368.792C239.78 370.623 239.696 373.21 242.028 373.627C244.971 374.154 245.092 371.239 245.203 369.152C245.522 363.193 245.349 357.229 245.786 351.262C246.19 345.732 246.986 340.081 246.313 334.542C245.486 327.727 242.22 328.273 236.447 327.99C224.254 327.392 212.137 327.274 199.93 327.453" fill="#89C5CC"/>
<path fill-rule="evenodd" clip-rule="evenodd" d="M183.098 368.866C180.538 368.931 176.288 368.142 174.648 370.596C172.942 373.15 174.966 375.377 177.447 375.901C180.384 376.521 184.213 375.671 187.261 375.662C190.435 375.652 193.61 375.688 196.784 375.7C210.392 375.753 224.058 375.959 237.657 375.397C239.556 375.318 244.946 375.955 246.26 374.133C247.427 372.518 246.611 371.069 245.074 370.246C242.554 368.895 237.378 369.409 234.575 369.302C231.113 369.17 227.646 369.127 224.183 369.073C210.511 368.862 196.768 368.528 183.098 368.866" fill="#89C5CC"/>
<path fill-rule="evenodd" clip-rule="evenodd" d="M194.609 380.67C189.517 380.757 184.083 380.534 179.041 381.306C174.608 381.985 174.062 386.271 178.834 386.772C183.22 387.233 188.537 386.372 192.944 386.089C194.509 385.988 196.329 386.131 197.079 384.401C197.862 382.593 196.365 380.859 194.609 380.67" fill="#89C5CC"/>
<path fill-rule="evenodd" clip-rule="evenodd" d="M233.108 381.12C230.39 381.188 222.451 380.019 221.105 383.124C218.863 388.292 229.611 386.329 231.673 386.253C234.272 386.157 244.4 387.675 244.402 383.538C244.404 379.481 235.597 381.059 233.108 381.12" fill="#89C5CC"/>
<path fill-rule="evenodd" clip-rule="evenodd" d="M78.4701 406.804C78.4766 416.206 77.8915 425.697 78.7492 435.076C79.1039 438.955 79.0431 446.386 81.2899 449.674C82.8848 452.008 85.0968 451.845 85.968 449.042C86.5503 447.168 85.6189 443.421 85.515 441.416C85.4149 439.493 85.298 437.57 85.209 435.645C84.9804 430.688 84.9985 425.739 85.0667 420.779C85.1251 416.524 86.1493 410.895 85.1835 406.804C84.2831 402.991 78.4701 402.099 78.4701 406.804" fill="#69A1AC"/>
<path fill-rule="evenodd" clip-rule="evenodd" d="M172.967 398.532C156.654 398.941 140.304 398.576 124.006 399.383C115.968 399.781 107.961 400.656 99.9635 401.527C96.0342 401.956 92.1072 402.398 88.1848 402.881C87.0012 403.027 77.1656 403.408 80.865 407.148C82.4803 408.782 87.6206 407.076 89.6546 406.835C93.5927 406.37 97.5387 405.965 101.482 405.548C108.987 404.754 116.5 404.002 124.037 403.585C141.786 402.601 159.609 402.896 177.376 402.241C182.182 402.064 186.973 401.937 191.781 402.126C193.044 402.175 202.321 402.647 198.293 399.22C196.388 397.6 189.207 398.436 186.827 398.387C182.207 398.292 177.585 398.416 172.967 398.532" fill="#69A1AC"/>
<path fill-rule="evenodd" clip-rule="evenodd" d="M195.205 414.373C195.125 410.029 195.044 405.685 194.846 401.344C194.638 396.773 200.865 396.081 202.711 399.781C204.041 402.445 203.807 406.977 203.606 410.862C203.526 412.427 203.45 413.888 203.485 415.078C203.564 417.806 203.765 420.628 203.968 423.486C204.48 430.68 205.009 438.111 203.664 444.902C203.01 448.202 200.227 449.936 198.374 448.138C198.371 448.141 198.369 448.145 198.366 448.149C197.669 449.176 195.5 449.174 193.902 449.172C193.462 449.172 193.065 449.171 192.755 449.192C188.378 449.49 184.082 449.992 179.743 450.642C171.099 451.938 162.53 452.734 153.793 452.95C147.864 453.097 141.927 453.146 135.989 453.196C124.617 453.29 113.24 453.384 101.904 454.162C98.0825 454.425 94.3187 454.875 90.5595 455.594C90.2396 455.655 89.8842 455.734 89.506 455.819C86.7109 456.44 82.6645 457.34 82.388 453.434C82.0594 448.798 92.1075 448.19 97.2783 447.878C98.0677 447.83 98.7435 447.789 99.2513 447.742C114.952 446.282 130.899 446.508 146.666 446.732C147.43 446.742 148.194 446.753 148.957 446.764C150.187 446.781 151.417 446.801 152.647 446.821C159.398 446.933 166.141 447.044 172.889 446.631C175.96 446.443 179.072 446.346 182.189 446.25C187.162 446.096 192.149 445.941 197.013 445.414C196.279 442.57 196.151 439.214 196.03 436.051C195.983 434.819 195.937 433.617 195.857 432.485C195.43 426.456 195.317 420.415 195.205 414.373Z" fill="#69A1AC"/>
<path fill-rule="evenodd" clip-rule="evenodd" d="M208.408 404.693C206.204 404.992 204.366 406.879 205.35 409.271C206.589 412.283 210.28 411.106 212.718 410.915C220.468 410.308 228.56 411.521 236.217 410.606C238.308 410.356 241.341 409.217 239.464 406.407C238.053 404.296 232.911 404.666 230.725 404.464C223.25 403.772 215.873 403.957 208.408 404.693" fill="#C1DEE2"/>
<path fill-rule="evenodd" clip-rule="evenodd" d="M221.488 417.834C218.483 418.036 211.486 417.877 210.219 421.297C207.947 427.432 216.846 425.27 219.556 424.921C222.703 424.516 230.123 425.601 231.799 422.549C234.796 417.091 224.124 417.652 221.488 417.834" fill="#C1DEE2"/>
<path fill-rule="evenodd" clip-rule="evenodd" d="M213.759 431.298C212.333 432.724 212.331 435.271 213.759 436.698C215.507 438.445 219.317 438.082 221.614 438.209C224.818 438.388 234.021 440.083 235.612 436.31C237.759 431.219 229.425 431.326 226.684 431.037C223.516 430.704 216.385 428.671 213.759 431.298" fill="#C1DEE2"/>
<path fill-rule="evenodd" clip-rule="evenodd" d="M101.437 344.159C101.437 349.632 109.985 349.632 109.985 344.159C109.985 338.715 101.437 338.632 101.437 344.159" fill="#89C5CC"/>
<path fill-rule="evenodd" clip-rule="evenodd" d="M117.651 344.221C117.651 350.478 127.387 350.465 127.387 344.221C127.387 337.986 117.651 337.922 117.651 344.221" fill="#89C5CC"/>
<path fill-rule="evenodd" clip-rule="evenodd" d="M107.842 352.54C103.11 353.847 107.47 357.858 109.667 358.774C113.16 360.23 117.927 361.304 121.42 359.12C122.81 358.251 123.938 357.097 122.92 355.411C121.834 353.615 120.349 354.414 118.696 354.579C116.603 354.79 114.911 354.757 112.89 354.086C111.381 353.585 109.488 352.087 107.842 352.54" fill="#89C5CC"/>
<path fill-rule="evenodd" clip-rule="evenodd" d="M193.69 344.505C193.69 348.207 199.438 348.207 199.438 344.505C199.438 340.803 193.69 340.803 193.69 344.505" fill="#89C5CC"/>
<path fill-rule="evenodd" clip-rule="evenodd" d="M206.402 345.062C206.402 349.175 212.788 349.176 212.788 345.062C212.788 340.949 206.402 340.949 206.402 345.062" fill="#89C5CC"/>
<path fill-rule="evenodd" clip-rule="evenodd" d="M205.929 353.988C202.575 354.421 192.873 355.404 192.33 359.539C191.493 365.918 202.123 360.755 204.549 360.254C207.64 359.616 210.399 359.783 213.484 359.907C215.178 359.974 217.431 360.249 217.253 357.669C216.962 353.432 208.861 353.612 205.929 353.988" fill="#89C5CC"/>
<path fill-rule="evenodd" clip-rule="evenodd" d="M121.592 412.814C119.16 413.463 115.98 417.666 117.653 420.239C120.395 424.458 121.605 417.98 122.753 417.356C124.842 416.222 126.537 420.368 128.72 418.193C132.164 414.761 123.76 412.234 121.592 412.814" fill="#69A1AC"/>
<path fill-rule="evenodd" clip-rule="evenodd" d="M149.45 409.696C146.567 409.722 140.48 413.804 140.049 416.818C139.793 418.609 140.98 420.33 142.911 420.354C145.54 420.386 146.375 416.968 148.654 416.253C151.112 415.482 150.747 417.258 152.87 418.178C154.424 418.852 156.367 418.57 156.906 416.66C157.925 413.057 152.413 409.639 149.45 409.696" fill="#69A1AC"/>
<path fill-rule="evenodd" clip-rule="evenodd" d="M127.38 426.954C122.768 429.656 130.356 435.449 132.987 436.174C136.958 437.267 144.951 435.226 145.892 430.375C146.267 428.444 145.059 426.695 142.928 427.041C141.174 427.326 140.049 429.527 138.424 430.315C136.23 431.378 134.28 431.306 132.416 429.705C130.898 428.4 130.085 425.376 127.38 426.954" fill="#69A1AC"/>
<path fill-rule="evenodd" clip-rule="evenodd" d="M130.722 466.885C126.602 467.764 122.413 467.174 118.273 468.001C114.051 468.843 111.528 470.438 107.606 468.831C107.421 468.753 107.237 468.676 107.053 468.598C104.017 467.29 100.835 466.903 97.6576 468.987C95.7771 470.22 90.0684 474.486 90.7564 477.089C92.2475 482.732 98.6711 473.883 100.309 473.021C103.433 471.376 105.574 473.477 108.79 474.07C112.642 474.78 115.741 472.745 119.37 471.934C123.613 470.986 128.387 470.656 132.705 470.148C134.41 469.948 140.871 471.297 141.454 469.174C142.456 465.528 132.342 466.542 130.722 466.885" fill="#C1DEE2"/>
<path fill-rule="evenodd" clip-rule="evenodd" d="M160.449 478.25C160.719 478.454 160.503 478.29 160.449 478.25ZM171.989 466.665C175.516 466.307 186.802 463.787 189.119 467.432C190.629 469.806 188.233 478.568 185.949 479.702C184.122 480.607 179.869 479.606 177.865 479.535C174.136 479.404 170.4 479.346 166.675 479.113C165.426 479.035 161.407 479.265 160.428 478.159C159.272 476.854 159.323 469.895 159.051 468.169C162.294 469.219 168.598 467.009 171.989 466.665M179.521 463.091C175.004 463.287 170.487 463.626 166.003 464.232C163.504 464.57 160.971 465.468 158.663 465.894C157.919 466.031 156.711 465.65 155.799 466.091C153.132 467.379 155.467 476.089 156.11 478.415C157.098 481.99 159.583 482.569 163.066 482.905C167.653 483.35 172.334 483.21 176.936 483.154C181.371 483.099 187.352 484.082 189.841 479.632C191.45 476.754 193.175 470.053 191.8 466.846C189.991 462.626 183.236 462.935 179.521 463.091" fill="#C1DEE2"/>
<path fill-rule="evenodd" clip-rule="evenodd" d="M230.111 480.643C229.869 480.954 229.869 480.954 230.111 480.643ZM231.101 479.45C231.026 479.563 230.679 479.93 231.101 479.45ZM220.327 479.122C222.319 478.748 224.311 478.377 226.304 478.013C224.417 480.656 222.429 479.563 219.203 479.333C219.578 479.263 219.953 479.193 220.327 479.122M210.827 478.187C211.331 478.018 211.836 477.849 212.341 477.681C212.325 478.065 212.408 478.425 212.588 478.76C211.724 478.666 210.861 478.566 209.998 478.46C210.274 478.369 210.551 478.278 210.827 478.187M206.424 474.936C206.396 474.243 207.438 474.719 208.036 474.672C206.884 475.686 206.346 475.774 206.424 474.936M222.169 467.072C222.321 466.878 222.522 466.888 222.772 467.101C222.499 467.192 221.449 467.638 222.169 467.072M232.38 465.871C232.407 465.871 232.974 466.636 232.38 465.871ZM232.094 465.62C232.242 465.733 232.242 465.733 232.094 465.62ZM230.819 465.471C232.907 465.823 232.749 468.274 230.819 465.471ZM206.291 465.304C205.867 465.656 206.012 465.315 206.291 465.304ZM214.275 460.088C210.731 460.294 204.224 460.086 201.264 461.975C197.401 464.44 199.434 472.926 199.78 476.646C200.29 482.144 202.878 483.71 208.056 484.287C214.236 484.976 220.585 485.104 226.797 484.941C232.391 484.794 235.577 482.87 236.602 476.98C236.916 475.177 237.712 472.389 237.687 470.663C237.67 469.466 237.073 468.92 236.848 467.902C235.563 462.105 233.414 461.417 227.473 461.165C223.1 460.979 218.566 459.863 214.275 460.088" fill="#89C5CC"/>
</g>
<g opacity="0.5">
<path fill-rule="evenodd" clip-rule="evenodd" d="M402.032 326.913C411.044 327.105 421.269 332.093 419.844 342.659C418.8 350.399 412.098 356.683 404.336 357.224C395.995 357.806 387.175 351.404 386.042 342.911C384.766 333.357 393.22 326.722 402.032 326.913M397.613 322.612C393.96 323.157 390.469 325.076 387.252 326.794C386.024 327.451 379.798 331.452 384.681 332.446C372.916 351.42 400.604 369.043 416.171 356.712C423.161 351.174 426.841 340.675 422.323 332.457C417.649 323.958 406.566 321.267 397.613 322.612" fill="#89C5CC"/>
<path fill-rule="evenodd" clip-rule="evenodd" d="M395.459 338.762C395.459 342.306 400.96 342.306 400.96 338.762C400.96 335.218 395.459 335.218 395.459 338.762" fill="#89C5CC"/>
<path fill-rule="evenodd" clip-rule="evenodd" d="M405.658 339.33C405.658 343.172 411.621 343.172 411.621 339.33C411.621 335.488 405.658 335.488 405.658 339.33" fill="#89C5CC"/>
<path fill-rule="evenodd" clip-rule="evenodd" d="M398.775 346.928C397.973 349.842 407.123 351.337 407.428 347.964C407.573 346.352 399.333 344.894 398.775 346.928" fill="#89C5CC"/>
<path fill-rule="evenodd" clip-rule="evenodd" d="M425.6 345.126C436.129 343.863 446.985 344.447 457.565 344.75C460.213 344.826 462.861 344.9 465.509 344.944C467.193 344.973 470.829 345.781 472.298 344.993C478.315 341.766 466.512 340.205 464.84 340.057C454.316 339.191 438.075 338.882 427.52 339.291C424.398 339.412 423.724 345.351 425.6 345.126" fill="#89C5CC"/>
<path fill-rule="evenodd" clip-rule="evenodd" d="M472.98 397.469C473.071 386.437 473.466 375.33 474.314 364.331C474.659 359.847 475.074 355.37 475.417 350.887C475.579 348.775 476.329 345.817 475.088 343.964C473.809 342.055 471.003 341.658 469.312 343.35C467.288 345.97 467.876 350.367 467.625 353.537C467.238 358.41 466.77 363.28 466.538 368.164C466.089 377.617 465.983 387.234 466.743 396.673C467.102 401.127 467.879 405.473 468.914 409.817C469.385 411.795 473.133 420.603 472.345 421.818C471.124 423.702 462.099 422.99 460.141 423.042C455.118 423.177 450.092 423.265 445.067 423.361C440.765 423.443 436.463 423.502 432.16 423.54C430.452 423.555 420.414 423.251 422.641 425.784C397.742 427.519 372.366 424.622 347.619 423.629C346.369 423.578 344.323 423.224 342.435 423.121C342.209 422.21 342.023 421.395 341.977 420.828C341.652 416.851 341.567 412.86 341.215 408.884C340.569 401.609 339.318 394.407 338.574 387.144C337.831 379.889 337.906 372.612 337.474 365.339C337.4 364.093 337.224 353.885 334.648 351.405C335.87 351.868 337.839 351.928 338.973 351.836C348.153 351.096 357.267 349.501 366.368 348.131C368.972 347.74 374.881 348.017 377.041 346.716C378.91 345.589 379.65 341.638 376.398 341.958C367.323 342.93 358.296 344.439 349.292 345.924C346.883 346.321 344.481 346.746 342.079 347.181C340.475 347.47 336.241 347.448 334.997 348.415C333.486 349.589 333.326 350.388 333.838 350.919C333.126 350.723 332.273 351.031 331.248 352.056C329.311 354.578 331.132 360.789 331.363 363.746C331.641 367.293 331.777 370.846 331.939 374.399C332.251 381.275 332.97 388.056 334.077 394.85C335.317 402.46 336.371 410.102 337.614 417.71C337.938 419.691 338.359 421.623 338.898 423.537C335.549 425.25 337.826 427.973 340.482 428.456C340.501 428.46 340.521 428.463 340.54 428.466C341.367 430.485 342.525 432.355 343.43 429.65C343.499 429.443 343.531 429.187 343.539 428.9C350.399 429.676 357.938 429.194 364.691 429.47C379.319 430.068 394.037 430.965 408.68 430.51C414.477 430.33 420.291 429.815 426.04 429.042C429.407 428.589 432.788 428.048 436.102 427.297C436.339 427.244 436.7 427.187 437.117 427.118C437.185 427.116 437.254 427.115 437.319 427.114C442.393 427.037 447.463 426.901 452.533 426.69C456.789 426.513 461.064 426.423 465.306 426.021C467.941 425.772 473.51 425.818 475.128 423.168C476.599 420.759 474.139 414.552 473.79 411.846C473.176 407.08 472.941 402.27 472.98 397.469" fill="#C1DEE2"/>
<path fill-rule="evenodd" clip-rule="evenodd" d="M421.556 365.614C417.501 365.961 413.752 367.865 409.66 367.889C406.225 367.909 402.844 366.882 399.39 367.034C395.339 367.21 393.11 369.83 389.562 370.707C386.737 371.404 384.957 369.242 382.472 368.285C379.335 367.077 377.017 367.701 374.328 369.528C372.352 370.871 367.744 373.884 367.78 376.599C367.886 384.825 377.483 373.462 379.417 373.324C381.988 373.141 384.86 376.071 387.595 376.238C391.211 376.46 393.529 374.129 396.859 373.279C400.226 372.42 403.866 373.473 407.242 373.799C411.093 374.172 414.464 373.313 418.19 372.394C421.801 371.503 424.878 371.55 428.547 372.298C431.023 372.803 437.193 375.739 438.276 371.964C439.751 366.823 424.39 365.373 421.556 365.614" fill="#89C5CC"/>
<path fill-rule="evenodd" clip-rule="evenodd" d="M422.79 381.302C414.482 382.109 406.123 382.816 397.777 383.042C394.162 383.141 380.266 381.591 381.498 386.185C382.555 390.123 401.465 387.643 405.317 387.343C409.569 387.013 413.815 386.551 418.046 386.016C419.545 385.826 423.166 386.022 424.225 384.765C425.233 383.565 424.736 381.108 422.79 381.302" fill="#89C5CC"/>
<path fill-rule="evenodd" clip-rule="evenodd" d="M365.476 402.221C365.286 402.301 365.286 402.301 365.476 402.221ZM367.228 402.197C369.299 402.132 368.855 401.04 370.922 401.609C371.875 401.871 371.972 401.482 372.711 402.393C374.153 404.17 372.795 408.039 371.374 409.471C366.113 414.773 359.799 402.433 367.228 402.197M367.228 396.996C352.825 397.479 358.851 419.728 371.387 415.187C376.564 413.311 379.818 404.861 376.773 400.112C375.292 397.802 373.403 397.391 370.922 397.231C370.345 397.194 369.621 398.031 369.261 397.993C368.406 397.903 368.486 396.948 367.228 396.996" fill="#89C5CC"/>
<path fill-rule="evenodd" clip-rule="evenodd" d="M401.671 402.984C401.414 402.904 406.219 404.301 405.693 403.754C406.815 404.921 405.307 407.68 404.038 408.161C400.965 409.328 399.24 404.549 401.671 402.984M403.803 396.951C399.293 397.59 395.813 399.468 395.196 404.483C394.628 409.112 397.755 413.799 402.689 413.89C413.442 414.086 413.769 395.56 403.803 396.951" fill="#89C5CC"/>
<path fill-rule="evenodd" clip-rule="evenodd" d="M452.893 403.186C453.523 411.406 444.999 403.882 452.893 403.186ZM449.235 394.392C448.49 395.666 449.125 397.018 450.25 397.759C440.196 399.884 442.473 415.014 452.704 412.778C457.907 411.642 458.864 406.171 458.088 401.653C457.719 399.505 452.366 389.038 449.235 394.392" fill="#89C5CC"/>
</g>
<path opacity="0.5" fill-rule="evenodd" clip-rule="evenodd" d="M511.627 415.345C506.977 415.966 495.986 419.821 496.082 423.962C496.23 430.425 505.572 423.365 507.65 422.416C518.813 417.315 533.272 423.925 544.895 425.331C550.225 425.975 560.65 427.167 565.357 424.485C573.728 419.717 554.368 420.911 551.903 420.719C538.501 419.68 525.168 413.529 511.627 415.345" fill="#C1DEE2"/>
<g opacity="0.5">
<path fill-rule="evenodd" clip-rule="evenodd" d="M614.586 363.268C614.583 368.946 614.296 374.742 615.343 380.352C615.659 382.051 615.909 385.304 617.701 386.185C619.501 387.07 621.246 386.076 621.693 384.231C622.215 382.085 621.07 378.872 620.955 376.619C620.795 373.54 620.785 370.458 620.783 367.376C620.782 365.15 621.515 361.569 618.887 360.424C616.933 359.572 614.586 361.156 614.586 363.268" fill="#C1DEE2"/>
<path fill-rule="evenodd" clip-rule="evenodd" d="M704.353 354.287C685.54 356.176 666.457 356.568 647.576 357.553C638.848 358.008 628.301 357.427 620.078 360.806C618.552 361.433 613.083 364.925 617.523 366.347C618.907 366.79 620.312 365.299 621.448 364.8C623.341 363.969 625.532 363.712 627.55 363.387C644.706 360.632 662.651 361.112 679.984 359.825C684.425 359.495 688.868 359.155 693.3 358.719C696.467 358.407 703.122 356.125 706.044 357.292C711.037 359.287 710.92 372.247 711.019 376.704C711.07 379.009 708.833 387.283 713.28 386.444C716.84 385.773 715.551 377.177 715.274 374.826C714.546 368.662 713.304 353.38 704.353 354.287" fill="#C1DEE2"/>
<path fill-rule="evenodd" clip-rule="evenodd" d="M711.291 386.146C694.95 387.621 678.233 386.173 661.824 386.754C653.224 387.059 644.632 387.543 636.03 387.827C632.31 387.95 628.586 387.955 624.864 387.982C623.084 387.994 614.983 389.073 619.994 392.602C622.213 394.165 629.285 392.906 631.831 392.876C635.656 392.831 639.478 392.672 643.3 392.522C652.152 392.176 660.999 391.696 669.856 391.457C678.328 391.227 686.805 391.178 695.277 390.949C699.492 390.834 703.765 390.705 707.943 390.09C708.886 389.951 711.948 389.84 712.603 388.789C713.222 387.795 712.787 386.002 711.291 386.146" fill="#89C5CC"/>
<path fill-rule="evenodd" clip-rule="evenodd" d="M630.978 373.877C630.89 374.085 630.89 374.085 630.978 373.877ZM638.055 371.726C638.313 371.836 638.313 371.836 638.055 371.726ZM637.723 371.666C641.537 375.554 635.672 380.193 632.1 376.4C628.308 372.374 635.268 371.679 637.723 371.666M633.679 365.786C620.543 368.123 625.194 385.63 637.462 383.099C642.848 381.989 645.928 376.563 644.075 371.351C643.35 369.315 641.772 367.08 639.573 366.438C638.477 366.118 637.507 366.621 636.463 366.504C635.467 366.391 634.915 365.563 633.679 365.786" fill="#C1DEE2"/>
<path fill-rule="evenodd" clip-rule="evenodd" d="M683.95 370.713C676.029 370.738 668.107 371.075 660.187 371.225C657.758 371.271 651.514 370.183 651.504 374.013C651.494 378.105 658.449 376.594 660.763 376.539C668.619 376.351 676.495 376.007 684.319 375.259C686.295 375.07 693.138 375.396 693.131 372.708C693.123 369.86 685.546 370.713 683.95 370.713" fill="#C1DEE2"/>
<path fill-rule="evenodd" clip-rule="evenodd" d="M702.869 397.421C683.278 397.947 663.718 398.13 644.143 399.133C636.822 399.508 629.51 399.787 622.178 399.787C620.765 399.787 617.922 399.24 616.593 400.129C612.986 402.541 617.093 404.612 619.444 404.742C635.524 405.635 651.838 403.413 667.909 402.912C677.317 402.619 686.728 402.532 696.131 402.053C698.696 401.923 701.262 401.771 703.823 401.572C705.296 401.458 709.191 401.771 710.381 400.91C715.578 397.148 704.621 397.374 702.869 397.421" fill="#89C5CC"/>
<path fill-rule="evenodd" clip-rule="evenodd" d="M612.986 407C612.801 412.079 612.782 417.07 613.447 422.121C613.708 424.108 613.828 426.364 616.158 426.869C618.274 427.327 619.347 425.727 619.785 423.953C620.855 419.62 619.914 413.384 619.901 408.883C619.895 406.657 619.893 404.166 617.143 403.663C615.045 403.279 613.066 404.795 612.986 407" fill="#89C5CC"/>
<path fill-rule="evenodd" clip-rule="evenodd" d="M723.633 419.245C691.922 420.916 660.252 422.375 628.517 423.716C626.042 423.821 606.816 423.612 613.538 430.316C615.614 432.387 620.963 430.985 623.647 430.853C627.682 430.655 631.719 430.503 635.753 430.298C651.75 429.484 667.788 429.264 683.773 428.35C692.57 427.847 701.346 427.06 710.097 426.036C714.259 425.549 719.426 425.599 723.324 423.968C725.329 423.129 727.494 419.04 723.633 419.245" fill="#89C5CC"/>
<path fill-rule="evenodd" clip-rule="evenodd" d="M705.4 393.48C702.988 395.882 704.228 400.62 704.41 403.589C704.66 407.674 704.964 411.762 705.474 415.825C705.806 418.464 705.63 422.572 707.038 424.851C708.687 427.521 712.317 427.226 713.808 424.646C715.127 422.365 714.459 417.566 714.425 415.038C714.378 411.542 714.16 408.041 713.953 404.553C713.779 401.637 714.44 396.964 712.836 394.469C711.206 391.933 707.66 391.232 705.4 393.48" fill="#89C5CC"/>
<path fill-rule="evenodd" clip-rule="evenodd" d="M632.917 412.119C632.634 412.337 632.634 412.337 632.917 412.119ZM638.549 411.413C643.805 412.47 635.307 418.606 632.621 414.395C632.202 413.737 631.983 412.928 632.657 412.356C633.271 411.834 633.657 412.758 634.238 412.51C635.238 412.082 637.482 411.373 638.549 411.413M637.824 406.375C634.236 406.659 629.303 406.881 627.527 410.478C625.141 415.309 629.221 420.041 633.942 420.776C638.485 421.483 645.267 418.967 645.631 413.669C645.924 409.397 641.861 406.048 637.824 406.375" fill="#89C5CC"/>
<path fill-rule="evenodd" clip-rule="evenodd" d="M667.781 408.93C664.066 408.99 656.765 407.892 653.529 409.702C650.327 411.494 651.755 414.684 654.676 415.447C656.607 415.952 659.763 415.138 661.773 415.056C664.418 414.948 667.064 414.925 669.71 414.889C674.161 414.829 678.609 414.879 683.06 414.879C687.605 414.879 692.228 415.003 696.766 414.669C702.508 414.247 702.353 409.948 696.738 409.41C687.199 408.497 677.35 408.78 667.781 408.93" fill="#89C5CC"/>
<path fill-rule="evenodd" clip-rule="evenodd" d="M658.292 457.08C658.292 459.122 660.105 457.08 660.092 457.08C660.105 457.08 658.292 455.037 658.292 457.08" fill="#89C5CC"/>
<path fill-rule="evenodd" clip-rule="evenodd" d="M617.297 440.637C617.414 446.574 617.49 452.517 617.744 458.45C617.824 460.326 617.287 463.989 619.561 464.946C622.092 466.01 622.879 463.357 623.17 461.559C624.094 455.862 623.189 449.358 623.1 443.594C623.07 441.659 623.489 438.965 621.291 438C619.498 437.213 617.261 438.674 617.297 440.637" fill="#89C5CC"/>
<path fill-rule="evenodd" clip-rule="evenodd" d="M714.935 440.73C715.085 441.084 715.085 441.084 714.935 440.73ZM715.147 440.67C715.268 440.721 715.76 440.927 715.147 440.67ZM667.183 435.871C658.068 436.014 648.948 436.122 639.839 436.512C635.951 436.679 632.019 436.814 628.145 437.18C625.401 437.44 618.584 437.548 616.804 439.79C613.132 444.419 620.92 443.156 622.598 442.781C625.65 442.096 628.767 441.877 631.886 441.712C638.653 441.356 645.423 441.165 652.199 441.028C670.573 440.659 688.961 440.715 707.34 440.632C709.119 440.624 712.335 439.908 713.978 440.628C715.624 441.35 715.531 443.123 715.702 445.182C715.93 447.922 714.123 453.143 715.5 455.448C717.636 459.023 720.742 455.987 721.217 453.381C721.872 449.78 720.833 445.456 719.815 442.014C718.379 437.157 716.385 436.964 711.687 436.584C706.199 436.141 700.73 435.872 695.224 435.821C685.879 435.735 676.527 435.726 667.183 435.871" fill="#89C5CC"/>
<path fill-rule="evenodd" clip-rule="evenodd" d="M703.233 460.414C683.464 462.71 663.132 461.357 643.257 461.438C638.424 461.458 633.586 461.497 628.758 461.731C626.208 461.855 620.162 461.152 618.415 463.119C614.732 467.266 621.366 467.87 623.788 467.698C628.685 467.35 633.594 467.191 638.503 467.153C655.796 467.019 673.186 467.826 690.465 466.973C697.704 466.616 704.781 465.377 711.886 463.994C713.46 463.687 724.235 461.639 718.091 459.183C714.459 457.732 707.048 459.969 703.233 460.414" fill="#89C5CC"/>
<path fill-rule="evenodd" clip-rule="evenodd" d="M645.512 452.822C645.374 452.999 645.374 452.999 645.512 452.822ZM645.379 452.791C645.332 452.918 645.187 453.232 645.379 452.791ZM644.132 451.183C644.161 451.22 644.279 451.371 644.132 451.183ZM644.084 451.171C644.56 451.739 644.881 452.373 645.046 453.072C640.95 454.182 639.371 450.868 644.084 451.171M643.825 451.016C643.827 451.017 644.403 451.259 643.825 451.016ZM637.097 446.079C634.446 449.38 632.257 453.227 635.562 456.998C638.518 460.37 644.463 460.805 648.214 458.554C652.077 456.235 651.743 451.352 649.048 448.165C647.313 446.113 645.907 446.17 643.389 445.835C641.675 445.607 638.551 444.274 637.097 446.079" fill="#89C5CC"/>
<path fill-rule="evenodd" clip-rule="evenodd" d="M664.5 452.189C664.5 456.585 683.481 454.693 686.858 454.688C689.687 454.684 706.79 456.244 705.563 451.721C704.554 448.004 687.707 449.851 684.119 449.846C681.017 449.841 664.5 447.712 664.5 452.189" fill="#89C5CC"/>
</g>
<g opacity="0.5">
<path fill-rule="evenodd" clip-rule="evenodd" d="M416.7 493.376C426.206 494.756 436.094 499.227 436.011 510.292C435.941 519.595 428.139 529.496 418.119 528.94C409.103 528.441 400.612 518.58 399.483 510.13C398.898 505.752 399.993 501.039 402.568 497.437C405.942 492.719 411.296 492.726 416.7 493.376M412.21 487.362C405.334 487.399 400.304 489.886 396.049 495.136C394.523 497.018 392.748 499.044 391.586 501.177C390.501 503.169 390.691 508.234 394.415 505.859C393.498 515.665 399.229 525.182 407.467 530.207C416.422 535.669 426.544 534.604 433.997 526.948C440.819 519.94 443.22 508.103 438.229 499.436C433.241 490.774 421.683 487.269 412.21 487.362" fill="#89C5CC"/>
<path fill-rule="evenodd" clip-rule="evenodd" d="M432.826 484.734C428.424 487.96 424.405 492.208 421.067 496.517C417.804 500.729 415.647 505.987 411.727 509.66C409.748 507.504 407.429 501.681 403.48 503.991C400.203 505.908 402.313 509.205 403.909 511.369C408.03 516.958 412.606 519.208 417.891 513.686C422.691 508.671 425.417 501.98 429.905 496.677C431.873 494.35 434.915 492.04 436.482 489.471C437.903 487.142 436.146 482.294 432.826 484.734" fill="#89C5CC"/>
</g>
<g opacity="0.5">
<path fill-rule="evenodd" clip-rule="evenodd" d="M599.175 134.878C599.182 135.318 599.188 135.731 599.197 136.112C599.403 144.416 599.284 153.146 598.609 161.431C598.376 164.292 596.295 167.917 593.921 163.974C592.877 162.24 593.024 158.68 593.131 156.061C593.16 155.358 593.186 154.724 593.186 154.21C593.184 151.288 593.337 148.336 593.491 145.375C593.792 139.588 594.095 133.77 593.238 128.086C593.221 127.971 593.204 127.861 593.189 127.754C592.816 125.255 592.791 125.082 590.042 125.139C588.896 125.163 587.75 125.194 586.605 125.225C585.478 125.255 584.351 125.286 583.224 125.309C582.104 125.333 580.985 125.354 579.866 125.376C576.356 125.443 572.846 125.511 569.337 125.639C568.752 125.661 567.659 125.798 566.281 125.971C563.524 126.316 559.624 126.806 556.342 126.803C556.343 126.817 556.344 126.831 556.345 126.845C556.347 126.871 556.349 126.896 556.349 126.922C556.386 128.734 555.919 130.756 555.45 132.788C555.058 134.49 554.664 136.199 554.563 137.795C554.322 141.594 554.319 145.433 554.317 149.273C554.313 153.948 554.31 158.623 553.877 163.225C553.856 163.45 553.843 163.687 553.83 163.927C553.829 163.959 553.827 163.991 553.825 164.023C553.974 164 554.118 163.984 554.257 163.975C556.623 163.825 559.008 163.812 561.39 163.798C562.704 163.791 564.016 163.784 565.323 163.753C567.671 163.699 570.048 163.702 572.434 163.704C577.701 163.71 583.015 163.716 588.167 163.109C589.689 162.912 590.221 164.863 589.538 165.875C588.927 166.781 587.244 166.928 586.012 167.035C585.699 167.063 585.415 167.087 585.185 167.121C581.862 167.613 578.495 167.785 575.142 167.934C571.621 168.09 568.096 168.206 564.573 168.304C563.734 168.328 562.615 168.441 561.374 168.566C558.097 168.897 553.972 169.314 551.925 168.388C549.724 167.392 549.776 166.287 550.674 165.431C550.28 164.564 550.218 163.299 550.169 162.309C550.151 161.931 550.134 161.593 550.102 161.333C549.614 157.392 549.319 153.501 549.312 149.526C549.298 141.74 549.314 133.653 551.468 126.116C550.605 125.738 550.085 125.181 550.087 124.379C550.097 120.335 562.682 120.541 568.665 120.639C569.735 120.656 570.593 120.67 571.131 120.656C575.489 120.542 579.848 120.527 584.207 120.551C585.128 120.556 586.153 120.495 587.215 120.433C589.474 120.3 591.901 120.158 593.852 120.611C598.978 121.801 599.101 129.965 599.175 134.878Z" fill="#89C5CC"/>
<path fill-rule="evenodd" clip-rule="evenodd" d="M631.235 121.497C635.993 121.245 640.756 121.188 645.521 121.17C650.566 121.145 655.618 121.235 660.661 121.39L660.778 121.394C663.012 121.461 675.432 121.834 669.726 124.929C669.393 125.11 669.019 125.26 668.61 125.386C668.852 126.819 668.881 128.298 668.842 129.011C668.695 131.714 668.598 134.421 668.5 137.127C668.435 138.961 668.369 140.795 668.287 142.628C668.063 147.692 667.849 152.757 667.674 157.824C667.653 158.446 667.686 159.259 667.723 160.166C667.844 163.163 668.006 167.18 666.379 168.665C664.95 169.968 663.974 169.707 663.316 168.821C659.228 170.009 650.832 169.623 646.61 169.429C645.593 169.382 644.818 169.346 644.404 169.346C643.664 169.347 642.289 169.439 640.552 169.556C633.323 170.041 619.829 170.948 619.801 167.384C619.799 167.041 619.91 166.734 620.12 166.458C619.547 165.874 619.032 165.016 618.701 163.945C617.513 160.101 617.401 155.954 617.313 151.968C617.188 146.34 617.187 140.705 617.185 135.072C617.185 132.178 617.184 129.285 617.167 126.394C616.394 125.356 616.853 124.169 617.817 123.341C619.87 121.579 624.965 121.558 628.652 121.542C629.644 121.538 630.533 121.534 631.235 121.497ZM623.491 164.895C628.078 163.916 635.807 164.231 639.947 164.4C641.032 164.444 641.87 164.478 642.341 164.476C646.571 164.46 650.801 164.519 655.027 164.688C655.465 164.705 656.113 164.689 656.877 164.669C658.411 164.631 660.412 164.58 662.111 164.769C662.088 164.538 662.072 164.328 662.063 164.146C661.873 160.384 662.01 156.59 662.147 152.817V152.817C662.176 152.015 662.205 151.214 662.231 150.415C662.322 147.594 662.442 144.774 662.563 141.955L662.563 141.955L662.563 141.953C662.638 140.178 662.714 138.403 662.783 136.628C662.813 135.849 662.768 134.79 662.718 133.6V133.6C662.615 131.178 662.49 128.208 662.924 125.926C661.359 125.897 659.756 125.786 658.285 125.684C656.868 125.586 655.575 125.497 654.558 125.496C653.268 125.496 651.978 125.492 650.689 125.488H650.689H650.689H650.688C647.115 125.477 643.543 125.466 639.969 125.537C639.63 125.544 639.291 125.55 638.952 125.557L638.952 125.557L638.952 125.557C634.031 125.652 629.07 125.748 624.191 126.396C623.905 126.434 623.561 126.507 623.181 126.596C623.716 128.832 623.454 131.983 623.224 134.742C623.113 136.082 623.009 137.33 623.008 138.336C623.001 144.592 623.166 150.823 623.331 157.048L623.331 157.049L623.331 157.049C623.394 159.404 623.456 161.757 623.509 164.111C623.515 164.392 623.509 164.653 623.491 164.895Z" fill="#89C5CC"/>
<path fill-rule="evenodd" clip-rule="evenodd" d="M571.284 168.123C568.157 169.95 569.843 177.259 570.927 179.786C572.708 183.942 576.322 187.195 580.222 189.352C588.104 193.712 599.466 192.554 605.427 200.114C605.489 200.192 607.549 202.232 608.018 199.59C608.403 197.422 604.557 194.111 603.066 193.024C598.827 189.934 593.391 188.938 588.488 187.394C583.259 185.748 577.521 182.713 575.328 177.322C574.552 175.413 576.032 165.336 571.284 168.123" fill="#C1DEE2"/>
<path fill-rule="evenodd" clip-rule="evenodd" d="M642.779 171.637C639.913 172.427 641.809 176.371 641.804 178.346C641.799 180.809 641.011 183.387 639.493 185.353C635.643 190.339 628.104 191.086 622.452 192.515C618.348 193.554 608.529 195.78 608.145 201.331C607.716 207.529 616.384 199.986 617.117 199.677C625.219 196.705 635.701 196.131 641.955 189.589C644.537 186.888 646.062 183.284 646.305 179.564C646.441 177.469 646.465 170.63 642.779 171.637" fill="#C1DEE2"/>
<path fill-rule="evenodd" clip-rule="evenodd" d="M583.561 226.616C583.494 215.148 594.469 208.21 604.393 205.601C616.322 202.458 627.433 210.816 628.84 222.84C630.324 235.529 620.76 245.744 608.148 246.304C597.054 246.796 583.632 238.853 583.561 226.616ZM610.207 211.115C610.852 211.992 611.434 213.392 610.134 214.154C608.884 214.883 608.26 214.007 607.631 213.125C607.234 212.568 606.835 212.009 606.276 211.851C604.826 211.443 602.495 212.968 601.288 213.857C600.797 214.218 600.1 214.995 599.284 215.904C596.688 218.795 592.897 223.017 590.802 219.384C582.446 233.813 603.278 244.612 615.124 239.151C628.134 233.154 625.602 211.229 610.207 211.115Z" fill="#89C5CC"/>
<path fill-rule="evenodd" clip-rule="evenodd" d="M599.289 222.777C599.289 225.409 603.446 225.409 603.446 222.777C603.446 220.174 599.289 220.063 599.289 222.777" fill="#89C5CC"/>
<path fill-rule="evenodd" clip-rule="evenodd" d="M606.603 222.282C606.603 225.507 611.697 225.507 611.697 222.282C611.697 219.095 606.603 218.959 606.603 222.282" fill="#89C5CC"/>
<path fill-rule="evenodd" clip-rule="evenodd" d="M601.369 229.796C597.203 232.246 609.117 237.115 609.587 232.14C609.79 229.993 607.711 230.572 606.325 230.414C604.999 230.263 602.627 229.064 601.369 229.796" fill="#89C5CC"/>
<path fill-rule="evenodd" clip-rule="evenodd" d="M599.562 247.181C599.743 253.44 599.656 259.695 600.843 265.867C601.068 267.039 601.225 271.291 602.152 272.162C604.43 274.304 604.468 270.198 604.557 268.625C604.873 262.99 604.281 257.179 604.151 251.532C604.122 250.316 604.444 247.799 603.871 246.622C602.96 244.754 599.473 244.2 599.562 247.181" fill="#C1DEE2"/>
<path fill-rule="evenodd" clip-rule="evenodd" d="M595.106 242.107C585.973 252.357 573.396 251.602 560.726 252.5C554.031 252.974 547.262 253.948 541.876 258.278C539.37 260.293 537.21 262.816 535.758 265.691C535.124 266.948 532.114 274.202 536.634 272.481C538.237 271.871 539.815 267.074 540.852 265.655C542.827 262.953 545.354 260.722 548.385 259.272C554.232 256.475 561.214 256.523 567.554 256.168C574.181 255.797 581.294 255.45 587.386 252.568C590.252 251.213 592.94 249.522 595.246 247.343C596.071 246.564 597.838 245.241 597.969 244.05C598.12 242.689 596.812 240.197 595.106 242.107" fill="#C1DEE2"/>
<path fill-rule="evenodd" clip-rule="evenodd" d="M549 273.57C540.421 273.856 531.852 274.203 523.285 274.746C521.53 274.857 515.676 274.502 517.167 278.1C518.362 280.983 525.501 279.076 527.862 278.936C536.789 278.406 545.753 278.222 554.662 277.419C556.663 277.239 565.709 277.311 561.973 273.764C560.196 272.076 551.455 273.486 549 273.57" fill="#89C5CC"/>
<path fill-rule="evenodd" clip-rule="evenodd" d="M511.719 277.707C509.015 281.259 510.258 289.891 510.462 294.161C510.66 298.298 509.856 305.863 515.257 306.505C513.542 306.28 516.559 306.609 517.05 306.635C518.146 306.694 519.248 306.713 520.346 306.725C522.883 306.753 525.421 306.719 527.957 306.668C533.702 306.554 539.462 306.386 545.2 306.069C547.612 305.935 560.696 306.047 561.214 303.541C561.876 300.339 549.331 302.151 547.085 302.253C541.616 302.504 536.138 302.557 530.664 302.628C527.951 302.664 525.235 302.691 522.522 302.638C521.401 302.616 516.965 303.076 516.284 302.328C515.703 301.692 516.156 295.842 516.144 294.947C516.104 292.03 516.107 289.107 516.211 286.191C516.281 284.228 517.342 280.493 516.477 278.649C515.636 276.856 513.185 276.244 511.719 277.707" fill="#89C5CC"/>
<path fill-rule="evenodd" clip-rule="evenodd" d="M555.895 277.873C556.051 284.371 556.1 290.999 557.635 297.354C558.145 299.468 558.861 303.829 560.985 304.924C563.215 306.073 565.14 304.433 565.286 302.223C565.469 299.446 563.982 295.799 563.677 292.949C563.321 289.624 563.114 286.296 562.992 282.954C562.9 280.441 563.663 276.673 561.268 275.053C559.116 273.597 555.825 275.063 555.895 277.873" fill="#89C5CC"/>
<path fill-rule="evenodd" clip-rule="evenodd" d="M572.968 276.287C570.3 278.945 571.492 287.36 571.826 290.775C572.07 293.276 574.808 305.58 578.91 299.164C580.724 296.326 578.419 288.821 578.435 285.511C578.446 283.403 579.192 280.738 578.832 278.713C578.356 276.037 575.388 273.87 572.968 276.287" fill="#89C5CC"/>
<path fill-rule="evenodd" clip-rule="evenodd" d="M591.443 274.093C599.457 273.266 607.481 272.646 615.539 272.569C615.926 272.566 616.333 272.561 616.756 272.556C622.279 272.486 630.579 272.38 634.296 276.528C636.321 278.787 637.238 282.28 638.038 285.325C638.187 285.892 638.332 286.445 638.479 286.971C638.605 287.42 638.769 287.932 638.946 288.486C639.781 291.1 640.91 294.637 639.765 296.826C639.137 298.027 638.126 299.051 636.591 298.626C636.233 298.526 635.952 298.399 635.731 298.249C636.319 298.885 636.58 299.792 636.198 300.678C635.46 302.392 633.128 302.429 631.291 302.457C630.846 302.464 630.429 302.471 630.072 302.501C623.953 303.011 617.806 303.351 611.665 303.405C608.742 303.43 605.818 303.406 602.894 303.383C599.884 303.358 596.875 303.333 593.865 303.363C591.681 303.384 589.456 303.592 587.231 303.8C584.421 304.062 581.611 304.324 578.878 304.212C576.834 304.128 574.651 303.459 575.169 300.817C575.592 298.66 577.622 298.472 579.441 298.303C579.599 298.289 579.756 298.274 579.91 298.258C585.702 297.669 591.498 297.46 597.32 297.481C609.551 297.523 621.772 297.46 634.003 297.396C634.506 297.438 634.979 297.63 635.369 297.922C634.929 297.388 634.937 296.676 634.946 295.919C634.951 295.576 634.955 295.223 634.918 294.874C634.843 294.171 634.774 293.471 634.706 292.772C634.48 290.463 634.255 288.171 633.815 285.849C633.748 285.498 633.684 285.112 633.617 284.704C633.216 282.293 632.686 279.098 630.769 277.796C628.841 276.487 625.061 276.55 622.115 276.599C621.319 276.612 620.585 276.624 619.964 276.608C612.103 276.405 604.196 276.964 596.371 277.675C595.77 277.73 595.168 277.782 594.565 277.835C591.588 278.094 588.595 278.355 585.661 278.887C585.124 278.985 584.304 279.271 583.363 279.6C580.859 280.473 577.503 281.644 576.362 280.354C572.584 276.081 589.188 274.326 591.443 274.093Z" fill="#89C5CC"/>
<path fill-rule="evenodd" clip-rule="evenodd" d="M676.707 264.363C677.056 264.811 677.056 264.811 676.707 264.363ZM622.473 237.887C617.605 240.748 626.614 249.143 628.909 250.441C634.073 253.363 641.17 253.804 646.936 254.625C654.234 255.666 662.176 256.049 669.19 258.44C672.179 259.459 674.077 261.049 676.034 263.493C677.026 264.732 679.413 270.069 681.587 268.805C685.965 266.261 674.169 255.583 671.57 254.435C665.662 251.825 658.678 251.094 652.361 250.081C646.487 249.138 640.486 248.437 634.757 246.775C631.607 245.862 629.368 244.388 627.552 241.567C626.42 239.809 625.492 236.121 622.473 237.887" fill="#C1DEE2"/>
<path fill-rule="evenodd" clip-rule="evenodd" d="M697.091 270.681C691.479 270.806 685.878 271.238 680.278 271.669C677.136 271.911 673.995 272.153 670.853 272.341C669.87 272.4 668.886 272.453 667.902 272.506L667.902 272.506L667.902 272.506C665.133 272.655 662.361 272.804 659.606 273.083C659.188 273.125 658.703 273.165 658.174 273.208C655.834 273.4 652.644 273.662 650.605 274.516C648.736 273.102 645.851 274.304 645.806 276.824C645.729 281.414 645.771 285.923 646.331 290.485C646.461 291.544 647.13 296.905 648.586 299.696C648.068 302.332 650.315 303.07 652.406 303.272C660.506 304.054 668.999 303.447 677.378 302.849C681.639 302.544 685.871 302.242 690.006 302.125C691.381 302.086 692.774 302.071 694.175 302.055C698.747 302.004 703.407 301.952 707.833 301.087C708.011 301.052 708.202 301.018 708.402 300.982C710.152 300.669 712.565 300.236 712.749 298.31C712.859 297.154 712.207 296.096 711.116 295.947C711.191 294.984 711.07 293.933 710.981 293.161L710.981 293.161C710.96 292.981 710.941 292.816 710.927 292.671C710.661 289.993 709.994 287.332 709.335 284.705L709.335 284.705L709.335 284.705C709.187 284.114 709.04 283.525 708.897 282.939C708.739 282.289 708.593 281.515 708.435 280.682C707.879 277.739 707.179 274.042 705.32 272.325C703.369 270.525 700.194 270.604 697.65 270.668C697.46 270.673 697.273 270.678 697.091 270.681ZM706.966 296.235C706.301 294.493 706.106 292.138 705.921 289.899V289.899C705.805 288.494 705.692 287.134 705.47 286.001C705.302 285.151 705.165 284.255 705.026 283.344L705.026 283.344C704.688 281.131 704.337 278.832 703.506 276.893C702.394 274.296 701.404 274.395 699.062 274.63C698.627 274.674 698.144 274.722 697.606 274.759C695.219 274.921 692.834 275.127 690.45 275.334L690.45 275.334C689.306 275.433 688.162 275.532 687.018 275.626C682.122 276.028 677.223 276.338 672.324 276.647L672.324 276.647C669.462 276.828 666.599 277.008 663.737 277.208C661.491 277.364 659.298 277.791 657.115 278.216C655.386 278.553 653.662 278.889 651.922 279.088C651.897 279.683 651.847 280.28 651.799 280.849C651.734 281.624 651.674 282.346 651.687 282.937C651.744 285.559 651.975 288.164 652.207 290.774C652.243 291.175 652.278 291.576 652.313 291.978C652.355 292.459 652.459 293.077 652.574 293.763C652.751 294.824 652.956 296.046 653.001 297.171C653.213 297.17 653.424 297.171 653.631 297.171C653.899 297.172 654.162 297.173 654.415 297.169C660.583 297.061 666.747 296.874 672.912 296.637C673.699 296.607 674.486 296.576 675.273 296.546C680.773 296.332 686.273 296.117 691.778 296.054C693.965 296.029 696.18 296.098 698.403 296.167C701.262 296.255 704.132 296.344 706.966 296.235Z" fill="#89C5CC"/>
</g>
</svg>
