<svg width="116" height="359" viewBox="0 0 116 359" fill="none" xmlns="http://www.w3.org/2000/svg">
<path d="M5.71967 323.575C18.4848 323.575 28.2715 320.41 35.0796 314.079C41.8877 307.749 45.2916 298.315 45.2916 285.776C45.2916 282.002 45.0485 277.924 44.5623 273.541C44.1975 269.159 43.772 264.715 43.2857 260.211C42.921 255.585 42.4954 251.02 42.0092 246.516C41.6444 242.012 41.4621 237.751 41.4621 233.733C41.4621 220.951 43.4073 210.056 47.2976 201.047C51.3095 191.917 57.6921 184.735 66.4454 179.5C57.6921 174.387 51.3095 167.326 47.2976 158.318C43.4073 149.188 41.4621 138.171 41.4621 125.267C41.4621 121.249 41.6444 116.988 42.0092 112.484C42.4954 107.98 42.921 103.476 43.2857 98.9715C43.772 94.3455 44.1975 89.8413 44.5623 85.4588C45.0485 81.0763 45.2916 76.9981 45.2916 73.2243C45.2916 60.6855 41.8877 51.3118 35.0796 45.1033C28.2715 38.773 18.4848 35.6078 5.71967 35.6078H0.431274V0H5.71967C17.2691 0 27.7852 1.64344 37.2679 4.93032C46.7506 8.21719 54.8351 12.9649 61.5216 19.1734C68.2081 25.382 73.375 32.9905 77.0222 41.999C80.6694 50.8857 82.493 61.0507 82.493 72.4939C82.493 76.8764 82.3106 81.5632 81.9459 86.5544C81.5811 91.5456 81.1557 96.5368 80.6694 101.528C80.1831 106.397 79.7576 111.023 79.3929 115.406C79.0282 119.788 78.8458 123.562 78.8458 126.727C78.8458 133.666 79.4536 139.388 80.6694 143.892C82.0067 148.396 84.0734 151.988 86.8696 154.666C89.7873 157.222 93.4345 159.048 97.8112 160.144C102.309 161.118 107.659 161.605 113.859 161.605H115.5V197.395H113.859C107.659 197.395 102.309 197.943 97.8112 199.039C93.4345 200.013 89.7873 201.839 86.8696 204.517C84.0734 207.073 82.0067 210.604 80.6694 215.108C79.4536 219.612 78.8458 225.334 78.8458 232.273C78.8458 235.438 79.0282 239.272 79.3929 243.777C79.7576 248.159 80.1831 252.846 80.6694 257.837C81.1557 262.707 81.5811 267.637 81.9459 272.628C82.3106 277.619 82.493 282.245 82.493 286.506C82.493 297.949 80.6694 308.114 77.0222 317.001C73.375 326.009 68.2081 333.618 61.5216 339.827C54.8351 346.035 46.7506 350.783 37.2679 354.07C27.7852 357.357 17.2691 359 5.71967 359H0.431274V323.575H5.71967Z" fill="white" fill-opacity="0.5"/>
</svg>
