<svg width="116" height="359" viewBox="0 0 116 359" fill="none" xmlns="http://www.w3.org/2000/svg">
<path d="M115.069 323.575V359H109.78C98.2309 359 87.7148 357.357 78.2322 354.07C68.7495 350.783 60.6041 346.035 53.796 339.827C47.1095 333.618 41.9426 326.009 38.2955 317.001C34.6483 308.114 32.8247 297.949 32.8247 286.506C32.8247 282.245 33.007 277.619 33.3718 272.628C33.858 267.637 34.2836 262.707 34.6483 257.837C35.1346 252.846 35.5601 248.159 35.9248 243.777C36.4111 239.272 36.6542 235.438 36.6542 232.273C36.6542 225.334 35.9856 219.612 34.6483 215.108C33.311 210.604 31.2442 207.073 28.4481 204.517C25.6519 201.839 22.0047 200.013 17.5065 199.039C13.0083 197.943 7.65909 197.395 1.45887 197.395H0V161.605H1.45887C7.65909 161.605 13.0083 161.118 17.5065 160.144C22.0047 159.048 25.6519 157.222 28.4481 154.666C31.2442 151.988 33.311 148.396 34.6483 143.892C35.9856 139.388 36.6542 133.666 36.6542 126.727C36.6542 123.562 36.4111 119.788 35.9248 115.406C35.5601 111.023 35.1346 106.397 34.6483 101.528C34.2836 96.5368 33.858 91.5456 33.3718 86.5544C33.007 81.5632 32.8247 76.8764 32.8247 72.4939C32.8247 61.0507 34.6483 50.8857 38.2955 41.999C41.9426 32.9905 47.1095 25.382 53.796 19.1734C60.6041 12.9649 68.7495 8.21719 78.2322 4.93032C87.7148 1.64344 98.2309 0 109.78 0H115.069V35.6078H109.78C97.0152 35.6078 87.2285 38.773 80.4205 45.1032C73.6124 51.3118 70.2083 60.6855 70.2083 73.2243C70.2083 76.9981 70.3907 81.0763 70.7554 85.4588C71.1201 89.8413 71.5456 94.3455 72.0319 98.9715C72.5182 103.476 72.9437 107.98 73.3084 112.484C73.6732 116.988 73.8555 121.249 73.8555 125.267C73.8555 138.171 71.9104 149.188 68.02 158.318C64.1297 167.326 57.7471 174.387 48.8723 179.5C57.7471 184.735 64.1297 191.917 68.02 201.047C71.9104 210.056 73.8555 220.951 73.8555 233.733C73.8555 237.751 73.6732 242.012 73.3084 246.516C72.9437 251.02 72.5182 255.585 72.0319 260.211C71.5456 264.715 71.1201 269.159 70.7554 273.541C70.3907 277.924 70.2083 282.002 70.2083 285.776C70.2083 298.314 73.6124 307.749 80.4205 314.079C87.2285 320.41 97.0152 323.575 109.78 323.575H115.069Z" fill="white" fill-opacity="0.5"/>
</svg>
